<svg width="1733" height="687" viewBox="0 0 1733 687" fill="none" xmlns="http://www.w3.org/2000/svg">
<mask id="mask0_45_306" style="mask-type:alpha" maskUnits="userSpaceOnUse" x="0" y="0" width="1733" height="687">
<rect width="1733" height="687" fill="#D9D9D9"/>
</mask>
<g mask="url(#mask0_45_306)">
<mask id="mask1_45_306" style="mask-type:luminance" maskUnits="userSpaceOnUse" x="610" y="-474" width="1125" height="1167">
<path d="M610.051 -473.024H1734.55V692.038H610.051V-473.024Z" fill="white"/>
</mask>
<g mask="url(#mask1_45_306)">
<path d="M1777.99 -470.409C1388.34 -487.069 1358.78 -352.321 1289.49 -233.742C1220.19 -115.087 847.999 -295.574 650.121 57.6334C452.252 410.875 1277.96 876.349 1277.96 876.349L2138.48 667.543L1777.99 -470.409Z" fill="#FFE1C1"/>
</g>
<mask id="mask2_45_306" style="mask-type:luminance" maskUnits="userSpaceOnUse" x="0" y="-668" width="1317" height="1361">
<path d="M0 -667.623H1316.77V692.038H0V-667.623Z" fill="white"/>
</mask>
<g mask="url(#mask2_45_306)">
<path d="M-10.0175 -280.733C45.9269 -258.329 115.787 -260.74 169.174 -286.952C222.604 -313.13 257.876 -362.305 259.705 -413.036C261.773 -471.704 222.604 -530.93 243.473 -587.11C260.434 -632.79 319.869 -665.339 378.246 -660.948C436.591 -656.523 487.662 -615.606 493.991 -568.175C502.679 -503.398 439.064 -449.392 400.33 -392.349C353.895 -323.935 341.632 -240.646 366.918 -165.26C381.821 -120.874 411.826 -77.2157 461.555 -55.3359C511.285 -33.49 582.652 -41.2571 612.043 -80.5494C635.229 -111.584 627.433 -150.885 628.972 -187.207C630.52 -223.496 651.711 -266.621 696.078 -270.724C731.278 -273.999 762.779 -248.548 771.468 -220.551C780.114 -192.563 771.593 -163.144 762.26 -135.317C752.875 -107.489 742.524 -78.798 747.481 -50.2426C753.769 -14.25 784.095 16.4799 819.981 38.0974C855.909 59.7149 897.646 73.8276 937.835 89.6917C1085.61 148.089 1222.21 238.518 1283.97 362.453C1345.67 486.363 1314.09 646.358 1181.7 725.543C1065.96 794.787 907.873 789.236 766.157 770.064C478.038 731.195 199.012 648.337 -52.2027 527.144C-105.019 501.66 -157.544 473.832 -196.111 434.997C-239.917 390.873 -262.896 335.184 -274.754 279.266C-315.067 88.8626 -226.771 -116.246 -49.2721 -244.479L-10.0175 -280.733Z" fill="#E16F3E"/>
</g>
<mask id="mask3_45_306" style="mask-type:luminance" maskUnits="userSpaceOnUse" x="1171" y="-220" width="564" height="450">
<path d="M1171.26 -219.198H1734.55V229.228H1171.26V-219.198Z" fill="white"/>
</mask>
<g mask="url(#mask3_45_306)">
<path d="M1773.02 -62.5026C1739.54 -104.807 1665.45 -125.265 1611.33 -100.94C1593.95 -93.1732 1579.46 -81.5733 1561.92 -74.0093C1544.42 -66.4368 1521.37 -63.6279 1505.7 -73.544C1485.64 -86.2353 1488.48 -110.822 1484.79 -131.281C1474.52 -188.392 1394.75 -226.406 1325.08 -215.661C1255.42 -204.916 1201.42 -154.946 1182.55 -99.2904C1163.7 -43.6687 1175.32 16.2851 1199.43 70.5531C1222.82 123.104 1254.19 180.578 1315.33 205.927C1368.36 227.942 1433.03 223.28 1457.59 220.539C1517.99 209.895 1578.94 199.15 1635.2 178.294C1691.47 157.446 1743.39 125.447 1773.02 81.2983C1802.62 37.1072 1806.52 -20.2321 1773.02 -62.5026Z" fill="#E6BCBB"/>
</g>
<mask id="mask4_45_306" style="mask-type:luminance" maskUnits="userSpaceOnUse" x="0" y="-59" width="1328" height="752">
<path d="M0 -58.4409H1327.16V692.038H0V-58.4409Z" fill="white"/>
</mask>
<g mask="url(#mask4_45_306)">
<path d="M-23.8164 -40.0301C130.652 -70.4046 297.996 -55.3696 440.564 1.74129C501.019 25.9732 557.857 58.0906 599.459 101.224C641.072 144.358 666.493 199.387 660.559 254.019C748.783 214.82 857.46 211.808 953.146 236.928C1048.83 262.014 1132.02 313.372 1197.57 375.441C1297.24 469.737 1359.32 602.733 1308.25 720.026C1267.45 813.824 1158.56 881.874 1039.61 904.507C920.586 927.149 793.763 908.509 682.405 867.499C571.088 826.481 473.53 764.243 382.76 697.614C297.788 635.249 216.922 567.629 158.016 487.75C50.1903 341.47 23.8862 166.136 0.0139295 -3.34381" fill="#E16F3E"/>
</g>
<mask id="mask5_45_306" style="mask-type:luminance" maskUnits="userSpaceOnUse" x="0" y="-211" width="423" height="644">
<path d="M0 -210.736H422.986V432.29H0V-210.736Z" fill="white"/>
</mask>
<g mask="url(#mask5_45_306)">
<path d="M221.261 370.881C263.809 361.692 307.73 351.945 342.037 329.532C376.385 307.094 398.666 268.293 383.368 234.711C373.786 213.695 351.296 197.67 343.252 176.213C330.178 141.447 358.353 106.352 383.077 76.0447C396.557 59.4868 409.548 42.3283 416.324 23.2575C423.11 4.15285 422.985 -17.2954 411.085 -34.6148C399.196 -51.9596 373.858 -63.7964 350.028 -59.5659C333.586 -56.6554 319.867 -46.9085 303.385 -44.0994C280.125 -40.1651 256.088 -51.266 241.798 -66.7324C227.477 -82.2073 220.856 -101.371 214.599 -120.044C208.312 -138.717 201.775 -157.923 187.568 -173.424C163.332 -199.898 119.037 -211.261 78.9627 -206.074C38.8985 -200.888 3.29369 -181.089 -23.052 -155.969C-49.3977 -130.857 -67.3464 -100.677 -82.4471 -70.0405C-147.807 62.5243 -164.166 212.172 -118.573 350.126C-112.524 368.334 -105.301 386.643 -92.2265 402.211C-60.0712 440.522 -14.0418 438.407 29.3585 417.119C83.4737 390.577 160.484 384.037 221.261 370.881Z" fill="#00848A"/>
</g>
<mask id="mask6_45_306" style="mask-type:luminance" maskUnits="userSpaceOnUse" x="0" y="229" width="1109" height="464">
<path d="M0 229.229H1108.91V692.038H0V229.229Z" fill="white"/>
</mask>
<g mask="url(#mask6_45_306)">
<path d="M160.691 236.827C254.341 235.643 347.678 271.567 406.013 331.225C468.733 395.375 491.837 483.317 566.862 537.983C615.085 573.146 679.23 590.043 742.605 600.585C806.053 611.127 871.048 616.348 932.636 632.542C994.224 648.702 1053.94 677.85 1085.52 723.86C1117.07 769.862 1112.19 834.68 1062.38 868.287C1024.19 894.033 970.715 896.715 921.152 898.23C708.256 904.812 495.287 911.353 282.36 917.927C196.536 920.575 106.69 922.555 29.316 892.248C-83.3002 848.125 -144.192 742.931 -151.747 641.4C-164.696 468.384 -97.2266 240.068 160.691 236.827Z" fill="#42603D"/>
</g>
<mask id="mask7_45_306" style="mask-type:luminance" maskUnits="userSpaceOnUse" x="1036" y="102" width="699" height="576">
<path d="M1036.15 102.316H1734.55V677.655H1036.15V102.316Z" fill="white"/>
</mask>
<g mask="url(#mask7_45_306)">
<path d="M1303.45 171.424C1122.35 118.316 922.045 301.079 1124.94 463.62C1053.29 638.295 1284.65 702.242 1408.02 653.525C1634.19 726.474 1725.7 585.051 1684.62 496.872C1834.01 402.575 1755.58 265.12 1650.95 255.568C1645.35 96.9604 1396.78 54.326 1303.45 171.424Z" fill="#42603D"/>
<path d="M1344.61 232.3C1231.82 251.337 1169.02 404.53 1264.3 507.71C1359.54 610.924 1555.66 571.395 1600.53 477.107C1645.34 382.81 1596.75 189.734 1344.61 232.3Z" fill="#E16F3E"/>
</g>
<mask id="mask8_45_306" style="mask-type:luminance" maskUnits="userSpaceOnUse" x="838" y="415" width="897" height="278">
<path d="M838.688 415.367H1734.55V692.038H838.688V415.367Z" fill="white"/>
</mask>
<g mask="url(#mask8_45_306)">
<path d="M874.648 820.795C914.151 771.748 982.265 743.361 1049.82 722.903C1117.33 702.445 1188.42 687.24 1248.75 655.148C1315.45 619.621 1363.96 566.14 1418.28 518.683C1472.6 471.158 1539.17 426.967 1618.42 420.063C1732.54 410.113 1840.69 487.547 1864.56 578.899C1888.43 670.285 1840.24 767.086 1761.08 834.705C1681.92 902.333 1575.39 944.501 1467.04 975.24C1352.67 1007.7 1233.56 1029.04 1113.07 1038.66C969.804 1050.07 764.142 957.988 874.648 820.795Z" fill="#00848A"/>
</g>
</g>
</svg>
