<svg width="169" height="120" viewBox="0 0 169 120" fill="none" xmlns="http://www.w3.org/2000/svg">
<path d="M21.6494 111.413C22.0438 111.378 22.4575 111.276 22.8039 111.086C23.2354 110.637 23.2354 110.119 23.131 109.585C22.9942 109.359 22.8197 109.188 22.6479 109.067C22.2857 108.879 21.9229 108.879 21.5635 108.793C21.268 108.72 20.9752 108.688 20.6639 108.634C20.5622 108.634 20.4571 108.634 20.3712 108.758C20.3018 108.93 20.3368 109.12 20.3368 109.309C20.3368 109.999 20.3526 110.688 20.3712 111.378C20.3712 111.413 20.4254 111.448 20.4571 111.501C20.855 111.569 21.2522 111.448 21.6494 111.413ZM17.8533 117.573C17.733 117.573 17.5928 117.624 17.4725 117.555C17.4052 117.504 17.3543 117.434 17.3543 117.33C17.3351 117.106 17.3351 116.865 17.3351 116.623C17.3193 115.037 17.3193 113.432 17.3193 111.845C17.3193 111.534 17.3193 111.241 17.2492 110.93C17.2307 110.793 17.2307 110.637 17.2307 110.482C17.2149 109.706 17.2148 108.93 17.2148 108.154C17.2148 107.792 17.2149 107.429 17.2843 107.067C17.3351 106.791 17.3193 106.498 17.3351 106.222C17.3543 106.031 17.3866 105.84 17.5584 105.633C17.6629 105.633 17.7488 105.618 17.8347 105.601C18.7659 105.601 19.6819 105.583 20.6131 105.583C21.0103 105.583 21.3889 105.618 21.7676 105.687C22.3043 105.808 22.8382 105.84 23.3564 105.98C23.5096 106.015 23.6677 106.05 23.7859 106.117C24.8064 106.67 25.6138 107.411 26.0461 108.516C26.132 108.705 26.2021 108.911 26.2371 109.137C26.3574 109.878 26.3897 110.637 26.132 111.362C25.9602 111.864 25.7726 112.328 25.4771 112.758C25.0641 113.381 24.5294 113.794 23.8209 114.054C23.0959 114.293 22.3716 114.449 21.6143 114.554C21.3539 114.588 21.0962 114.57 20.8385 114.588C20.7148 114.588 20.578 114.57 20.4763 114.656C20.4062 114.726 20.3712 114.812 20.3712 114.898C20.3712 115.311 20.3526 115.708 20.4255 116.124C20.4921 116.554 20.4763 116.986 20.2509 117.415C20.165 117.434 20.0764 117.504 19.974 117.52C19.7163 117.555 19.4586 117.555 19.1981 117.573C18.906 117.59 18.5941 117.555 18.302 117.606C18.1625 117.641 18.0092 117.59 17.8533 117.573Z" fill="#02777C"/>
<path d="M31.2728 112.011C31.3072 112.011 31.3237 111.979 31.3587 111.96C31.3937 111.856 31.3937 111.789 31.3587 111.719C31.2886 111.547 31.1869 111.426 31.0309 111.341C30.6495 111.15 30.2551 111.045 29.8579 111.235C29.7885 111.255 29.7211 111.287 29.6675 111.306C29.5115 111.407 29.3933 111.547 29.2703 111.719C29.2188 111.807 29.2353 111.894 29.359 112.031C29.9946 112.011 30.6179 112.066 31.2728 112.011ZM29.1679 117.05C28.4271 116.878 27.8396 116.481 27.34 115.912C27.0287 115.565 26.8032 115.153 26.615 114.72C26.2878 113.979 26.2686 113.204 26.4088 112.409C26.4597 112.167 26.5105 111.91 26.5806 111.668C26.6665 111.255 26.8541 110.892 27.1146 110.565C27.4932 110.082 27.944 109.719 28.5639 109.528C29.0985 109.338 29.6167 109.236 30.1506 109.131C30.3575 109.08 30.5829 109.096 30.8055 109.15C30.9265 109.182 31.066 109.217 31.1869 109.268C31.4982 109.392 31.8068 109.545 32.0995 109.665C32.5826 109.84 32.929 110.148 33.2403 110.565C33.6698 111.185 33.9117 111.875 34.0484 112.615C34.102 112.892 34.1694 113.169 34.1178 113.426C34.1178 113.512 34.0835 113.601 34.067 113.668C34.0484 113.703 34.0161 113.722 33.9625 113.788C33.7907 113.808 33.6698 113.823 33.533 113.858C33.4279 113.874 33.3076 113.928 33.2052 113.944C32.964 113.928 32.7386 113.874 32.4967 113.928C32.3249 113.979 32.0995 113.944 31.9112 113.894C31.791 113.859 31.6508 113.84 31.514 113.84C30.8055 113.84 30.0997 113.84 29.3933 113.858C29.2889 113.858 29.1679 113.84 29.082 113.928C29.0126 114.049 29.0635 114.151 29.1171 114.272C29.4098 114.669 29.9087 114.739 30.3059 114.946C30.5636 114.876 30.8241 114.841 31.066 114.669L31.2027 114.392C31.2728 114.256 31.3745 114.17 31.5656 114.151C31.6164 114.17 31.6858 114.186 31.7559 114.221C31.9628 114.307 32.1882 114.357 32.4266 114.392C32.7895 114.427 33.1702 114.498 33.5138 114.669L33.5681 114.892C33.5681 115.238 33.533 115.55 33.3585 115.858C33.2726 115.998 33.1702 116.17 33.0149 116.274C32.5826 116.602 32.0995 116.945 31.5491 117.05C31.1677 117.12 30.8055 117.187 30.4269 117.222C29.9946 117.257 29.5816 117.136 29.1679 117.05Z" fill="#02777C"/>
<path d="M39.7414 114.707C39.7572 114.621 39.7922 114.588 39.7922 114.554V112.328C39.7922 112.275 39.7572 112.224 39.7228 112.156C39.1882 111.81 38.6034 112.122 38.0316 112.242C37.2558 112.672 37.5506 113.311 37.6688 114.102C37.9966 114.898 38.1175 115.104 38.8075 115.192C39.1882 115.123 39.4967 114.951 39.7414 114.707ZM40.3777 117.831C40.2403 117.813 40.085 117.813 39.9482 117.778C39.8431 117.762 39.7228 117.348 39.6019 117.313C39.4651 117.364 39.3442 117.418 39.2074 117.485C38.7559 117.676 38.2921 117.727 37.7897 117.606C37.4461 117.504 37.6021 117.418 37.2743 117.244C36.6167 116.951 36.1013 116.484 35.6505 115.917C35.065 115.209 34.8581 114.379 34.8238 113.501C34.7722 112.586 34.9956 111.826 35.3763 111.104C35.6855 110.532 35.9453 110.345 36.4985 110.052C37.7897 109.43 38.826 109.741 39.7572 109.807C39.8087 109.757 39.8431 109.741 39.8596 109.706C39.8781 109.566 39.8946 109.43 39.8946 109.292C39.8946 108.393 39.929 108.065 39.9482 107.188C39.9482 106.809 39.9132 106.549 39.9991 106.187C40.0149 106.066 39.9991 105.91 40.0149 105.773L40.0685 105.512C40.1867 105.392 40.3104 105.36 40.4313 105.36C40.7076 105.341 41.0003 104.997 41.2738 104.997H42.396C42.6214 104.997 42.7238 105.083 42.8125 105.236C42.8448 105.306 42.9142 105.668 42.9307 105.738C42.9492 105.894 42.9492 106.066 42.9492 106.222C42.9492 107.013 42.8448 107.325 42.8448 108.119C42.8448 108.463 42.7932 110.621 42.7238 110.965C42.6888 111.12 42.7424 112.103 42.7238 112.259C42.6537 113.45 42.673 114.898 42.7238 115.759C42.7238 115.899 42.7238 116.744 42.7424 116.881C42.8125 117.313 42.7238 117.571 42.4496 117.762C42.2407 117.745 41.8456 117.863 41.6202 117.848C41.3975 117.831 41.1879 117.968 40.9653 117.899C40.7749 117.848 40.5681 117.848 40.3777 117.831Z" fill="#02777C"/>
<path d="M44.8637 107.665C44.6383 107.459 44.6734 107.233 44.6383 106.94C44.5524 106.613 44.5524 106.235 44.5524 105.923C44.6383 105.717 44.6033 105.545 44.7428 105.424C45.2582 104.801 45.5028 104.715 46.0368 104.56C46.6223 104.458 47.3816 104.871 47.607 105.113C48.0207 105.545 48.0874 105.994 48.0558 106.648C48.0558 107.233 47.5026 107.373 47.1748 107.821C46.7082 108.13 46.5013 108.27 45.9674 108.165C45.5186 108.079 45.1723 108.012 44.8637 107.665ZM44.5682 117.085C44.4823 116.497 44.4157 115.757 44.4315 115.168C44.4315 114.961 44.5016 114.271 44.4665 114.049C44.4315 113.461 44.3806 113.515 44.4156 113.098C44.4507 112.838 44.4315 112.565 44.3964 112.288C44.3964 111.891 44.4507 111.614 44.5015 111.235C44.5174 110.943 44.4156 110.702 44.3964 110.409C44.3806 110.117 44.4157 109.821 44.4665 109.545C44.4823 109.443 44.5524 109.373 44.6919 109.303C45.2073 109.271 45.621 108.889 46.9686 109.217C47.0889 109.236 47.2098 109.271 47.2957 109.357C47.3122 109.408 47.3466 109.459 47.3631 109.528C47.3981 110.028 47.484 110.339 47.4167 110.822C47.3981 111.045 47.2449 111.356 47.2449 111.582C47.2607 111.96 47.484 112.806 47.4325 113.187C47.4167 113.305 47.4325 113.445 47.449 113.566C47.449 113.944 47.3466 114.116 47.2957 114.498C47.2772 114.653 47.4325 115.015 47.449 115.187C47.4675 115.601 47.4675 115.671 47.5026 116.084C47.5026 116.186 47.5026 116.306 47.484 116.395C47.484 116.567 47.449 116.723 47.3122 116.86C47.1404 116.895 46.9494 116.945 46.759 117.015C46.5013 117.066 46.2436 117.171 45.9674 117.12C45.8114 117.085 45.6746 117.101 45.5351 117.136C45.4678 117.187 45.3441 116.789 45.2774 116.758C45.1056 116.723 45.2259 117.152 44.9661 117.136C44.7428 117.066 44.5682 117.152 44.5682 117.085Z" fill="#02777C"/>
<path d="M52.7099 114.916V114.742C52.7285 114.328 52.7635 113.984 52.7449 113.829C52.7449 113.604 52.7099 113.19 52.6426 112.725V112.637C52.5567 112.637 52.4872 112.637 52.4013 112.621C51.8159 112.551 51.4001 112.811 51.2283 113.018C50.9514 113.362 50.9355 113.536 50.9514 113.95C50.9514 114.14 51.0373 114.417 51.1424 114.57C51.4668 115.002 51.7623 115.053 52.2804 115.018C52.4172 115.018 52.5732 114.983 52.7099 114.916ZM55.781 116.521C55.781 117.002 55.7137 117.745 55.3866 117.762C55.0402 117.778 54.2802 117.606 53.9015 117.59C53.5716 117.641 53.5043 117.571 53.193 117.59C53.1071 117.536 52.8817 117.227 52.8494 117.02C52.745 117.123 52.624 117.244 52.468 117.33C52.1058 117.52 51.5396 117.59 50.8819 117.59C50.0552 117.434 49.5371 117.174 48.9488 116.554C48.2245 115.727 48.173 115.123 48.0527 113.898C48.0527 112.586 48.1922 111.88 49.1234 110.983C49.8834 110.24 51.3492 109.775 52.5917 109.947C52.6426 109.896 52.7285 109.843 52.8494 109.706C53.2817 109.636 54.0575 109.569 54.4712 109.534C54.8684 109.464 55.2629 109.309 55.4374 109.963C55.4724 110.135 55.4724 110.758 55.5233 111.086C55.5742 111.448 55.4883 112.087 55.5391 112.431C55.5233 113 55.625 113.778 55.625 113.864L55.6786 115.037L55.781 116.521Z" fill="#02777C"/>
<path d="M59.4361 117.016C59.074 117.031 58.3167 117.222 58.1263 117.066C58.0562 117.05 57.9195 116.602 57.9009 116.465C57.8501 116.084 57.7635 115.671 57.7449 115.168C57.7635 114.825 57.78 114.237 57.7449 113.808C57.7126 113.496 57.7291 113.15 57.7291 112.822C57.7126 112.669 57.6941 112.529 57.6941 112.393C57.6941 112.374 57.659 112.358 57.659 112.342C57.3505 112.202 56.9691 112.253 56.7787 112.116C56.5746 111.96 56.6605 111.805 56.6605 111.376C56.6605 110.978 56.6255 110.632 56.6605 109.977C56.6605 109.942 56.7787 109.493 56.7973 109.459C56.8832 109.252 57.0041 109.217 57.1251 109.217C57.2969 109.201 57.4522 109.201 57.6267 109.201C57.7291 109.185 57.815 109.15 57.9009 109.01L57.9545 108.562C57.9545 108.165 57.9703 107.771 57.9703 107.389C57.9703 107.167 58.0054 106.543 58.1586 106.337C58.3167 106.286 58.4699 106.251 58.7462 106.095C59.0389 106.009 59.1599 106.114 60.212 106.2C60.4023 106.232 60.5934 106.474 60.7652 106.492C60.9019 106.543 60.9713 106.648 60.9555 106.785C60.9555 107.233 60.9878 107.993 60.9019 108.613C60.8696 108.769 60.8696 108.941 60.8854 109.115C60.8854 109.166 60.9205 109.217 60.9555 109.287C61.3342 109.303 61.5245 109.166 61.8681 109.303C61.9891 109.357 62.0076 109.926 62.0076 110.028C62.0427 110.339 61.8358 110.702 61.8681 110.994C62.0076 111.376 62.1794 111.684 61.9891 112.081C61.9733 112.132 61.7314 112.202 61.4551 112.221C61.1431 112.183 61.1431 112.183 60.8511 112.237C60.7652 112.307 60.7301 112.374 60.7301 112.46C60.7301 112.857 60.7136 112.787 60.7301 113.184C60.7487 113.738 60.66 114.084 60.7487 114.653C60.816 115.101 60.7301 116.326 60.7301 116.774C60.7301 116.93 60.6978 117.066 60.5398 117.206C60.1611 117.292 59.8684 117.12 59.4361 117.016Z" fill="#02777C"/>
<path d="M63.2479 117.294C63.2321 117.158 63.2128 117.018 63.2128 116.881C63.2128 116.277 63.197 115.692 63.197 115.088C63.1805 114.76 63.1805 114.414 63.1269 114.087C63.0919 113.829 63.1111 113.571 63.1111 113.311C63.1111 112.809 63.0761 112.31 63.1805 111.81C63.2128 111.604 63.197 111.378 63.197 111.152C63.197 110.828 63.197 110.482 63.2128 110.138C63.2128 109.913 63.2479 109.706 63.3523 109.515C63.3846 109.464 63.4382 109.429 63.4733 109.378C63.8011 109.344 64.1096 109.344 64.4209 109.394C64.7322 109.43 65.0408 109.499 65.3713 109.55C65.5266 109.585 65.6799 109.585 65.8359 109.62C65.9754 109.636 66.0936 109.775 66.0936 109.913L66.042 110.551C66.1472 110.653 66.198 110.672 66.2839 110.603C66.3025 110.586 66.319 110.567 66.3375 110.567C66.6653 110.205 67.0783 109.963 67.5078 109.741C67.6989 109.706 67.8892 109.652 68.0796 109.636C68.2679 109.601 68.4424 109.601 68.6142 109.601C68.7187 109.62 68.8046 109.671 68.9063 109.706C69.0272 109.982 69.0973 110.275 69.0973 110.586C69.0973 110.895 69.0973 111.207 69.0087 111.515C68.9578 111.69 68.9578 111.88 68.9413 112.052C68.9228 112.154 68.8719 112.242 68.7345 112.328C68.5091 112.38 68.2328 112.363 67.9566 112.31C67.8542 112.294 67.7683 112.259 67.6666 112.242C67.5779 112.242 67.4755 112.259 67.3711 112.259C66.6811 112.793 66.2138 113.467 66.0262 114.312C66.0077 114.382 66.0077 114.433 66.0077 114.484C65.9912 114.983 65.9754 115.485 66.042 115.985C66.0771 116.261 66.0771 116.537 66.0936 116.814C66.0936 117.018 66.0262 117.209 65.9053 117.383C65.8517 117.399 65.8008 117.453 65.75 117.453C65.3713 117.504 65.0085 117.571 64.6278 117.538C64.5254 117.52 64.4209 117.52 64.3192 117.52C64.1632 117.538 64.0237 117.606 63.8519 117.571C63.6959 117.538 63.5434 117.571 63.4197 117.571C63.2829 117.485 63.2479 117.399 63.2479 117.294Z" fill="#02777C"/>
<path d="M70.5297 107.408C70.1325 107.011 69.9415 106.509 69.9415 105.959C69.9415 105.508 70.116 105.113 70.3929 104.75C70.5455 104.493 70.8059 104.337 71.0822 104.251C71.3914 104.095 71.7186 104.076 72.0299 104.025C72.2367 104.076 72.425 104.095 72.5645 104.197C73.273 104.594 73.6166 105.198 73.7025 105.974C73.7375 106.302 73.6166 106.683 73.4262 106.957C73.0826 107.44 72.6848 107.802 72.0463 107.888C71.4608 108.012 70.9427 107.872 70.5297 107.408ZM69.7346 116.98C69.703 116.895 69.6487 116.809 69.6487 116.739C69.6143 116.154 69.5978 115.566 69.6679 114.997C69.6837 114.79 69.7188 114.584 69.7188 114.357C69.7346 113.944 69.7538 113.531 69.8205 113.118C69.8748 112.857 69.8556 112.583 69.8556 112.307C69.8748 111.91 69.8748 111.512 69.9415 111.131C69.9951 110.841 69.995 110.546 70.0115 110.254C70.0115 109.961 70.081 109.665 70.1325 109.392C70.1669 109.287 70.2342 109.217 70.3929 109.166C70.5964 109.166 70.841 109.236 71.0987 109.15C71.1337 109.15 71.1681 109.15 71.2196 109.166C71.6835 109.268 72.1673 109.236 72.6504 109.268C72.7707 109.287 72.8916 109.322 72.9775 109.443C72.9967 109.493 73.0311 109.545 73.0311 109.614C73.0311 110.117 73.0634 110.616 72.9452 111.099C72.9108 111.321 72.9108 111.563 72.8916 111.789C72.8758 112.167 72.8916 112.549 72.8057 112.911C72.7872 113.032 72.7871 113.169 72.7871 113.29C72.7707 113.668 72.7707 114.03 72.6848 114.412C72.6504 114.564 72.6689 114.739 72.6689 114.911C72.6504 115.324 72.6504 115.74 72.6504 116.154C72.6339 116.255 72.6339 116.376 72.6153 116.462C72.5989 116.634 72.548 116.792 72.3927 116.91C72.2209 116.945 72.0299 116.964 71.8395 117.016C71.5818 117.066 71.3055 117.085 71.0478 117.016C70.8919 116.964 70.7551 116.964 70.6156 116.996C70.5297 117.031 70.4245 117.05 70.3579 117.016C70.1833 116.945 69.995 117.016 69.7346 116.98Z" fill="#02777C"/>
<path d="M77.0985 117.745C76.8223 117.745 76.546 117.692 76.2883 117.59C76.0114 117.485 75.7537 117.485 75.4932 117.332C75.096 117.106 74.7524 116.658 74.5298 116.261C74.1484 115.657 73.8556 114.983 73.7354 114.293C73.6653 113.794 73.7862 113.311 73.9257 112.828C74.1834 111.985 74.5621 111.276 75.2355 110.672C75.4582 110.482 75.6492 110.24 75.9097 110.084C76.0973 109.966 76.3392 109.966 76.5295 109.896C77.2195 109.636 77.9603 109.62 78.6853 109.689C78.978 109.722 79.2378 109.807 79.4962 109.947C79.7374 110.084 79.9628 110.259 80.2047 110.431C80.2397 110.447 80.4809 110.583 80.5132 110.637C80.4459 110.809 80.4974 110.879 80.4273 111.018C80.4809 111.155 80.2047 111.308 80.2555 111.432C80.1696 111.604 80.1188 111.776 79.9951 111.931C79.8769 112.07 79.7188 112.189 79.6164 112.38C79.5814 112.431 79.5305 112.466 79.4962 112.5C79.4288 112.535 79.3752 112.57 79.3244 112.586H78.9966C78.4276 111.985 78.0304 111.966 77.4098 112.103C77.0126 112.431 76.8223 112.777 76.8223 113.327V113.966C76.9082 114.347 76.9968 114.465 77.2896 114.76C77.4614 114.951 77.8235 115.002 78.0647 115.139C78.2716 115.26 78.5135 115.295 78.7547 115.209C78.9265 115.158 79.066 115.104 79.2192 115.053C79.3402 115.018 79.5656 114.83 79.7051 114.898C79.8418 115.037 79.9277 115.399 79.9951 115.555C80.0679 115.727 79.791 116.019 79.8934 116.207C79.9277 116.417 80.1346 116.484 80.1696 116.725C80.1188 116.865 80.081 117.02 80.0301 117.192C79.7374 117.332 79.5147 117.45 79.2543 117.555C79.101 117.624 78.9265 117.692 78.7389 117.71C78.4276 117.762 78.0998 117.813 77.7727 117.762C77.5631 117.727 77.3404 117.727 77.0985 117.745Z" fill="#02777C"/>
<path d="M89.5538 113.928C89.7448 113.894 89.9324 113.858 90.142 113.858C91.5377 113.515 92.005 112.494 92.1067 111.235C92.0717 110.873 91.9514 110.476 91.9514 109.872C91.8841 109.252 91.5563 108.924 91.0196 108.53C90.6574 108.286 90.5901 108.234 90.142 108.13C89.6912 108.13 89.382 108.168 88.9339 108.095C88.8803 108.079 88.7944 108.095 88.7436 108.114C88.6735 108.13 88.6384 108.181 88.5876 108.199C88.5017 108.39 88.5367 108.562 88.5367 108.734C88.5525 109.424 88.3113 110.097 88.3299 110.772C88.3649 111.373 88.604 111.96 88.6226 112.549C88.6384 112.997 88.7085 113.477 88.8638 113.944C88.9662 113.963 89.0198 113.979 89.0899 113.979L89.5538 113.928ZM85.7583 117.152C85.7233 117.085 85.5006 117.05 85.4656 116.98C85.3797 116.739 85.1893 116.462 85.1893 116.205C85.1728 115.877 85.3611 115.636 85.3611 115.308C85.3446 114.929 85.3611 114.685 85.2752 114.307C85.3611 114.17 85.6216 114.186 85.5865 114.03C85.5329 113.219 85.5329 112.841 85.4656 112.581C85.4147 112.409 85.4306 112.218 85.4306 112.046C85.3962 110.476 85.4147 109.821 85.3962 108.234C85.3962 107.977 85.5329 107.58 85.447 107.319C85.3611 107.078 85.6051 106.715 85.5329 106.337C85.5329 106.044 85.001 105.701 85.0684 105.631C85.1893 105.545 85.3797 105.37 85.5006 105.268L85.882 105.215C86.1714 105.183 86.4483 105.129 86.7431 105.113C86.8455 105.097 86.9472 105.078 87.0709 105.078C87.4331 105.043 87.7959 105.024 88.1739 104.922C88.604 104.801 89.0548 104.852 89.4843 104.957C89.8651 105.024 90.2437 105.112 90.6409 105.129C90.9522 105.148 91.245 105.25 91.5219 105.387C91.8999 105.545 92.2813 105.733 92.6599 105.939C92.9362 106.079 93.3334 106.286 93.5725 106.511C94.6597 107.475 94.6597 107.665 94.971 109.08C95.0569 109.424 95.0919 109.77 95.127 110.132C95.1778 111.235 95.1613 111.582 95.1613 112.218C95.1613 112.857 94.6597 114.307 94.0742 115.032C93.6935 115.496 92.8125 116.395 92.2813 116.602C91.9858 116.704 91.6937 116.809 91.4168 116.859C90.9522 116.93 90.5042 117.034 90.0369 117.034C89.7448 117.034 89.4679 117.066 89.1916 117.152C89.0356 117.187 88.8803 117.187 88.7271 117.187C88.4666 117.222 88.2089 117.206 87.9326 117.206C87.6564 117.222 87.3636 117.257 86.9472 117.273C86.8455 117.238 86.6895 117.464 86.5177 117.428C86.3459 117.378 85.9487 117.171 85.7583 117.152Z" fill="#02777C"/>
<path d="M100.66 112.466C100.885 112.449 100.66 111.947 100.383 111.845C100.005 111.673 99.6426 111.638 99.2612 111.741C99.0894 111.776 98.8317 112.001 98.6414 112.294C98.5905 112.38 98.451 112.637 98.5713 112.637C99.2104 112.586 100.005 112.621 100.66 112.466ZM96.8801 116.572C96.5715 116.245 96.3303 115.829 96.1235 115.415C95.7606 114.691 95.7098 113.915 95.8122 113.104C95.8465 112.863 95.8981 112.602 95.9517 112.363C96.0183 111.947 96.1901 111.569 96.432 111.241C97.2429 110.154 98.8668 109.603 100.454 109.775C101.487 110.103 101.97 110.379 102.558 110.983C103.108 111.638 103.369 112.431 103.455 113.12C103.68 114.017 103.575 114.017 103.283 114.07C102.971 114.258 101.693 114.294 100.972 114.294C100.262 114.417 99.5567 114.242 98.8482 114.433C98.7458 114.433 98.6228 114.433 98.5555 114.519C98.4854 114.64 98.5369 114.742 98.5905 114.865C99.1946 115.673 100.196 115.796 100.797 115.139C100.937 115.002 101.057 114.916 101.089 114.795C101.487 114.519 101.42 114.742 102.142 114.812C102.504 114.83 102.955 114.795 103.318 114.951C103.696 115.088 103.384 115.813 103.213 116.14C103.127 116.296 103.041 116.468 102.886 116.572C102.024 117.278 101.213 117.624 99.7794 117.762C98.9341 117.796 97.7095 117.415 96.8801 116.572Z" fill="#02777C"/>
<path d="M105.783 117.171C105.369 117.101 104.956 117.12 104.54 117.05C104.489 117.05 104.437 117.034 104.368 117.015C104.333 116.964 104.317 116.91 104.266 116.844C104.387 116.361 104.352 115.877 104.352 115.378C104.368 114.653 104.368 113.944 104.387 113.239C104.387 113.029 104.419 112.841 104.437 112.635C104.437 112.463 104.472 112.288 104.472 112.116C104.489 111.719 104.489 111.321 104.505 110.924C104.505 110.787 104.505 110.632 104.523 110.511C104.578 110.269 104.593 110.031 104.523 109.805V109.614C104.523 109.443 104.644 109.271 104.835 109.236C104.937 109.217 105.058 109.201 105.179 109.201C105.696 109.15 106.215 109.166 106.714 109.08C106.854 109.064 106.99 109.08 107.096 109.08C107.248 109.15 107.318 109.252 107.353 109.373C107.388 109.51 107.334 109.684 107.439 109.821C107.473 109.84 107.525 109.856 107.559 109.84L107.715 109.786C108.129 109.528 108.596 109.424 109.06 109.322C109.457 109.252 109.855 109.271 110.252 109.306C110.389 109.322 110.529 109.373 110.647 109.424C110.993 109.579 111.305 109.805 111.597 110.047C111.683 110.117 111.753 110.218 111.804 110.323C112.131 110.908 112.322 111.528 112.373 112.186C112.389 112.307 112.389 112.428 112.408 112.549C112.51 113.115 112.51 113.687 112.408 114.256C112.389 114.392 112.389 114.532 112.389 114.669C112.373 115.015 112.373 115.686 112.373 116.033V116.688C112.357 116.859 112.287 116.98 112.115 117.05C112.061 117.066 111.995 117.085 111.924 117.12L110.529 117.187C110.268 117.136 110.026 117.222 109.839 117.136C109.734 117.066 109.699 116.999 109.68 116.93C109.648 116.789 109.613 116.653 109.613 116.516C109.613 115.947 109.613 115.015 109.68 114.443C109.785 113.719 109.75 112.978 109.578 112.253C109.508 112.011 109.422 111.773 109.216 111.598C109.095 111.496 108.974 111.442 108.838 111.462C108.526 111.512 108.249 111.582 108.024 111.805C107.938 111.875 107.852 111.96 107.766 112.046C107.423 112.393 107.267 112.806 107.248 113.273C107.232 113.909 107.232 114.548 107.232 115.187C107.232 115.48 107.232 115.772 107.162 116.068C107.128 116.24 107.146 116.43 107.128 116.602C107.111 116.844 107.096 116.876 106.886 117.152C106.768 117.152 106.628 117.171 106.491 117.187C106.247 117.187 106.008 117.206 105.783 117.171Z" fill="#02777C"/>
<path d="M114.079 116.986C114.026 116.607 113.94 116.191 113.923 115.692C113.94 115.346 113.958 114.76 113.923 114.331C113.888 114.017 113.907 113.673 113.907 113.346C113.888 113.19 113.87 113.053 113.87 112.914C113.87 112.897 113.837 112.879 113.837 112.863C113.526 112.725 113.145 112.949 112.957 112.811C112.75 112.656 112.836 112.5 112.836 112.068C112.836 111.673 112.801 111.327 112.836 110.672C112.836 110.637 112.957 110.189 112.973 110.154C113.059 109.947 113.182 109.913 113.303 109.913C113.475 109.896 113.63 109.896 113.802 109.896C113.907 109.878 113.993 109.845 114.079 109.706L114.13 109.258L114.146 107.913C114.146 107.687 114.181 107.496 114.337 107.29C114.492 107.239 114.648 107.255 114.922 107.102C115.217 107.013 115.338 106.86 116.39 106.946C116.578 106.978 116.769 106.997 116.941 107.013C117.08 107.067 117.15 107.169 117.131 107.309C117.131 107.757 117.166 108.05 117.08 108.669C117.045 108.825 117.045 108.997 117.062 109.172C117.062 109.223 117.096 109.274 117.131 109.344C117.512 109.359 117.7 109.223 118.046 109.359C118.167 109.413 118.202 109.515 118.202 109.62C118.235 109.931 118.288 110.24 118.321 110.535C118.39 111 118.167 111.673 118.046 111.896C118.028 111.95 117.977 112.001 117.942 112.068C117.7 112.173 117.321 112.242 117.027 112.294C116.941 112.363 116.908 112.431 116.908 112.516C116.908 112.914 116.89 113.311 116.908 113.708C116.924 114.258 116.838 114.605 116.924 115.174C116.994 115.622 117.027 116.468 117.027 116.916C117.027 117.072 116.994 117.211 116.838 117.348C116.46 117.434 116.044 117.555 115.612 117.536C115.249 117.555 114.492 117.745 114.302 117.59C114.232 117.573 114.095 117.123 114.079 116.986Z" fill="#02777C"/>
<path d="M119.738 107.147C119.512 106.94 119.41 106.664 119.375 106.371C119.289 106.044 119.34 105.717 119.34 105.405C119.426 105.198 119.48 105.027 119.617 104.906C120.135 104.286 120.79 104.06 121.585 104.128C121.912 104.163 122.255 104.353 122.481 104.594C122.895 105.027 123.171 105.475 123.136 106.13C123.136 106.718 122.913 107.198 122.379 107.529C121.912 107.837 121.378 107.751 120.841 107.647C120.392 107.561 120.049 107.494 119.738 107.147ZM119.34 117.187C119.308 117.101 119.254 117.031 119.254 116.964C119.204 116.376 119.169 115.616 119.222 115.047C119.222 114.841 119.254 114.392 119.239 114.17C119.239 113.582 119.254 113.394 119.308 112.978C119.359 112.721 119.34 112.444 119.325 112.167C119.34 111.77 119.325 111.547 119.394 111.166C119.426 110.873 119.426 110.581 119.426 110.289C119.426 109.993 119.48 109.7 119.531 109.424C119.566 109.322 119.636 109.252 119.773 109.201C120.291 109.185 120.723 108.839 122.049 109.236C122.17 109.252 122.29 109.287 122.379 109.389C122.395 109.443 122.43 109.493 122.43 109.564C122.446 110.062 122.516 110.374 122.411 110.858C122.395 111.08 122.395 111.321 122.379 111.547C122.379 111.925 122.379 112.841 122.306 113.219C122.291 113.34 122.291 113.48 122.306 113.598C122.291 113.979 122.306 114.342 122.22 114.723C122.205 114.876 122.22 115.047 122.22 115.222C122.22 115.636 122.22 115.702 122.24 116.119C122.22 116.22 122.22 116.341 122.205 116.427C122.189 116.602 122.154 116.758 121.998 116.878C121.826 116.913 121.636 116.945 121.445 116.999C121.188 117.05 120.911 117.257 120.653 117.187C120.498 117.152 120.36 117.152 120.221 117.187C120.135 117.222 120.03 117.241 119.963 117.206C119.788 117.152 119.601 117.222 119.34 117.187Z" fill="#02777C"/>
<path d="M125.204 117.848C124.911 117.796 124.67 117.727 124.444 117.692C123.91 117.622 123.704 117.504 123.392 117.278C123.236 117.209 123.169 116.932 123.15 116.83C123.185 116.693 123.15 116.347 123.15 116.038C123.169 115.657 123.325 115.364 123.427 115.158C123.478 115.071 123.497 115.002 123.618 114.951C123.652 114.951 123.824 115.071 123.875 115.104C124.117 115.295 124.358 115.381 124.616 115.536C125.118 115.743 125.341 115.899 125.843 115.899C126.03 115.864 126.444 115.692 126.568 115.415C126.584 115.158 126.516 115.071 126.377 114.916C126.154 114.742 125.34 114.5 125.048 114.347L124.167 113.861C123.875 113.571 123.618 113.311 123.563 112.914C123.563 112.881 123.548 112.605 123.548 112.328C123.548 112.052 123.548 111.432 123.669 111.155C123.84 110.707 124.202 110.431 124.616 110.17C125.22 109.775 125.601 109.655 126.326 109.601C126.879 109.566 127.032 109.48 127.601 109.601C127.896 109.638 128.189 109.689 128.498 109.724C128.689 109.775 128.879 109.913 129.051 110.017C129.155 110.224 129.172 110.414 129.12 110.637C129.069 111.035 129.051 111.292 128.758 111.638C128.672 111.743 128.497 111.776 128.345 111.743C128.103 111.655 127.808 111.67 127.585 111.62C127.239 111.518 127.032 111.466 126.774 111.499C126.584 111.518 126.444 111.743 126.377 112.087C126.342 112.242 126.482 112.431 126.619 112.5C126.981 112.691 127.395 112.811 127.982 113.035C128.498 113.19 129.034 113.553 129.187 113.933C129.429 114.414 129.397 115.139 129.292 115.675C129.187 116.191 128.965 116.623 128.586 116.986L128.31 117.227C127.845 117.692 127.258 117.866 126.619 117.952C126.221 117.952 125.567 117.934 125.204 117.848Z" fill="#02777C"/>
<path d="M131.379 116.809C131.327 116.049 131.207 115.292 131.226 114.513C131.241 114.17 131.207 113.823 131.156 113.461C131.121 113.153 131.137 112.806 131.137 112.479C131.121 112.323 131.102 112.186 131.102 112.046C131.102 112.031 131.07 112.011 131.07 111.995C130.809 111.719 130.361 111.925 130.103 111.668C130.085 111.614 130.068 111.563 130.068 111.528C130.085 110.787 130.12 110.047 130.154 109.287C130.154 109.252 130.189 109.217 130.206 109.182C130.292 109.08 130.412 109.045 130.536 109.045C130.707 109.03 130.863 109.03 131.035 109.03C131.137 109.01 131.226 108.978 131.312 108.838L131.362 108.39C131.362 107.993 131.379 107.596 131.379 107.217C131.379 106.992 131.413 106.804 131.569 106.597C131.639 106.578 131.725 106.527 131.827 106.527H132.949C133.174 106.527 133.397 106.543 133.62 106.597C133.811 106.629 134.001 106.648 134.173 106.664C134.313 106.715 134.383 106.82 134.363 106.96C134.363 107.405 134.398 107.872 134.313 108.32C134.277 108.476 134.277 108.648 134.294 108.82C134.294 108.874 134.329 108.924 134.363 108.994C134.745 109.01 135.107 109.045 135.451 109.182C135.571 109.236 135.607 109.338 135.607 109.443C135.639 109.754 135.692 110.062 135.725 110.358C135.797 110.822 135.762 111.271 135.708 111.719C135.692 111.773 135.639 111.824 135.607 111.891C135.158 111.995 134.691 111.84 134.259 111.945C134.173 112.011 134.141 112.081 134.141 112.167C134.141 112.564 134.122 112.962 134.141 113.359C134.157 113.909 134.141 114.463 134.227 115.032C134.294 115.48 134.259 115.947 134.259 116.395C134.259 116.548 134.227 116.688 134.071 116.824C133.693 116.91 133.276 117.034 132.844 117.015C132.431 117.015 132.017 117.05 131.534 117.066C131.465 117.05 131.397 116.945 131.379 116.809Z" fill="#02777C"/>
<path d="M137.036 117.504C137.018 117.364 137.001 117.227 137.001 117.09C137.001 116.484 136.88 115.692 136.88 115.088C136.865 114.76 136.865 114.414 136.811 114.087C136.776 113.829 136.794 113.571 136.794 113.311C136.794 112.811 136.76 112.31 136.865 111.81C136.9 111.604 136.88 111.38 136.88 111.155C136.88 110.828 136.88 110.482 136.9 110.138C136.9 109.913 136.932 109.706 137.036 109.515C137.071 109.464 137.122 109.43 137.157 109.378C137.484 109.344 137.794 109.344 138.105 109.394C138.416 109.43 138.728 109.258 139.055 109.309C139.208 109.344 139.367 109.344 139.519 109.378C139.656 109.394 139.78 109.534 139.78 109.671L139.726 110.31C139.831 110.414 139.882 110.431 139.968 110.361C139.984 110.342 140.002 110.326 140.019 110.326C140.346 109.963 140.556 109.896 140.985 109.671C141.175 109.638 141.573 109.655 141.761 109.638C141.951 109.601 142.419 109.638 142.59 109.638C142.695 109.655 142.902 109.706 142.902 109.896C142.902 110.068 142.883 110.275 142.781 110.586C142.609 110.981 142.575 111.207 142.489 111.518C142.434 111.69 142.314 111.88 142.298 112.052C142.279 112.156 142.228 112.242 142.089 112.328C141.865 112.38 141.589 112.36 141.313 112.31C141.21 112.294 141.125 112.259 140.883 112.242C140.692 112.242 140.556 112.294 140.346 112.466C140.037 112.793 139.898 113.467 139.745 113.984C139.694 114.208 139.694 114.312 139.694 114.484C139.675 114.986 139.656 115.485 139.726 115.985C139.761 116.261 139.761 116.537 139.78 116.814C139.78 117.02 139.71 117.209 139.589 117.383C139.538 117.399 139.484 117.45 139.433 117.45C139.055 117.504 138.778 117.504 138.4 117.59C138.295 117.571 138.124 117.657 138.019 117.657C137.863 117.676 137.726 117.708 137.555 117.708C137.399 117.708 137.329 117.78 137.208 117.78C137.071 117.692 137.036 117.606 137.036 117.504Z" fill="#02777C"/>
<path d="M145.42 119.654C145.211 119.533 144.884 119.603 144.677 119.498C144.47 119.412 144.315 119.259 144.092 119.155C144.092 119.155 144.073 119.136 144.073 119.101C144.073 119.087 144.041 119.034 144.041 118.999C144.041 118.948 144.073 118.929 144.092 118.862C144.572 118.049 144.798 117.931 145.179 117.308C145.471 116.824 145.574 116.411 145.869 115.944C145.936 115.757 145.974 115.601 145.869 115.41C145.764 115.238 145.624 115.05 145.523 114.86C145.281 114.548 145.109 114.221 144.921 113.874C144.798 113.668 144.763 113.531 144.626 113.325C144.368 112.911 144.384 113.064 144.159 112.669C143.971 112.393 143.85 112.046 143.746 111.754C143.592 111.547 143.539 111.306 143.402 111.099C143.297 110.943 143.281 110.772 143.246 110.581C143.281 110.479 143.332 110.39 143.434 110.339C143.987 110.062 144.196 109.907 144.763 109.665C145.007 109.513 145.281 109.373 145.367 109.322C145.557 109.268 145.678 109.322 145.764 109.459C146.024 109.891 146.505 110.651 146.626 111.099C146.937 111.649 147.144 112.011 147.49 112.529C147.576 112.65 147.973 111.859 148.282 111.235C148.438 110.943 148.645 110.444 148.714 110.117C148.784 109.891 148.94 109.599 149.093 109.392C149.353 109.03 149.63 108.769 149.783 108.924C150.25 109.201 150.8 109.252 151.216 109.599C151.407 109.754 151.457 110.117 151.648 110.253C151.801 110.32 151.853 110.511 151.664 110.772C151.407 111.115 151.216 111.477 151.044 111.875C150.784 112.409 150.542 112.927 150.284 113.445C149.836 114.392 149.474 115.015 148.99 115.928C148.679 116.532 148.473 116.964 148.11 117.549C147.697 118.258 147.558 118.379 147.198 119.136C147.093 119.345 146.954 119.552 146.851 119.791C146.749 120 146.317 119.88 146.11 120C145.764 119.914 145.609 119.81 145.42 119.654Z" fill="#02777C"/>
<path d="M166.696 61.4246C163.099 56.7537 158.243 58.8476 154.291 57.3763C153.489 57.0815 153.322 56.6437 153.368 56.2596C153.597 55.2934 155.261 55.492 156.023 55.6583C157.389 55.962 159.142 55.2267 159.9 54.2571C161.752 51.8897 160.369 47.6696 156.871 47.2566C150.249 46.3358 143.361 50.5662 142.937 56.1043C142.687 59.3816 144.182 62.5117 148.133 63.4216C151.073 64.2242 155.486 64.1356 155.913 65.991C156.264 67.5104 153.97 67.7516 152.557 67.274C149.556 66.2563 148.574 68.1516 147.578 69.8132C143.831 76.0626 152.313 80.2902 158.841 78.3386C167.523 76.8488 171.515 67.6822 166.696 61.4246Z" fill="#02777C"/>
<path d="M117.575 73.2815C117.427 68.7446 116.957 62.0018 112.437 60.9628C110.663 60.5546 109.237 61.5936 108.787 62.4258C106.427 66.7854 107.205 73.2574 107.1 76.3849C104.478 71.5772 102.95 69.0429 100.5 65.7168C96.9426 60.8982 91.0959 60.7724 90.3984 66.1786C89.4617 73.4773 90.4142 78.1565 92.2614 85.2889C93.2784 89.1489 95.3565 95.344 100.709 93.5057C102.846 92.8158 103.533 91.7712 103.264 89.621C103.24 88.1854 102.489 85.3047 102.169 83.9681C104.889 86.752 107.436 89.0761 110.909 90.2306C119.462 93.0707 117.747 78.5214 117.575 73.2815Z" fill="#02777C"/>
<path d="M116.478 80.5397C116.288 81.0929 115.966 81.4853 115.432 81.6488L116.478 80.5397Z" fill="#02777C"/>
<path d="M86.8442 86.3836C86.3907 82.6954 75.5109 88.604 76.7643 84.5694C77.5189 82.1402 83.2632 84.7976 84.2294 81.6138C84.7421 79.5577 84.4926 75.9794 81.6957 76.009C80.4044 75.8289 76.2757 76.9243 77.2983 73.5447C78.1518 70.7231 84.4926 75.9794 85.8615 71.8988C87.5074 66.9998 86.2216 62.9845 78.9276 62.9763C74.0128 62.9708 67.004 63.1721 66.4804 69.3273C65.9787 75.2194 64.671 81.0551 65.251 86.9719C65.5891 90.7034 66.7085 94.8341 71.0516 95.3419C81.9506 96.6194 87.5988 95.0595 86.8442 86.3836Z" fill="#02777C"/>
<path d="M19.8235 62.6539C18.2849 61.7008 13.2435 62.9254 14.0977 60.0261C14.4922 58.684 15.8693 58.9871 18.4622 59.7203C21.0529 60.4529 21.6405 61.7063 23.9515 59.1829C29.68 50.7304 16.3091 48.2145 8.94579 49.8576C1.58311 51.5007 -0.613181 73.4615 0.511767 80.3253C0.87942 82.5669 3.76223 82.5937 5.82658 82.3951C11.5365 81.8419 10.6562 74.7528 11.4747 70.5114C11.7832 68.1247 14.5272 69.9341 15.9923 70.0496C20.6392 71.7298 24.2498 64.8956 19.8235 62.6539Z" fill="#02777C"/>
<path d="M59.9231 85.616C60.8975 82.4995 65.8502 63.1961 59.0641 61.6712C52.6003 60.2192 51.344 66.2322 49.9456 70.3746C48.3643 76.2474 47.2559 82.3573 47.7198 88.5235C47.9589 91.6778 52.0766 92.1499 54.7395 92.3512C58.4442 92.4289 58.9486 88.7324 59.9231 85.616Z" fill="#02777C"/>
<path d="M36.2463 67.7811C36.4882 68.9652 35.4677 70.7904 34.3325 71.2116C32.8907 71.8397 34.072 68.0148 34.1792 67.5502C34.5043 66.2782 36.0903 66.85 36.2463 67.7811ZM43.497 81.4797C41.8944 79.9226 40.5867 78.0678 39.9586 75.9066C43.0297 75.6949 45.7971 74.0223 47.1289 71.2226C52.1757 61.2933 37.8063 53.6132 29.3448 55.7765C25.737 56.3537 19.2271 86.2633 25.1116 88.3139C32.5341 90.9047 29.8952 79.8662 32.6736 82.2068C39.1642 95.111 47.8078 84.8161 43.497 81.4797Z" fill="#02777C"/>
<path d="M131.441 74.7714C131.334 74.8009 131.221 74.825 131.106 74.8415C130.62 74.9026 130.086 74.7205 129.828 74.3068C129.667 74.0519 129.63 73.7406 129.592 73.4423C129.412 71.9071 129.165 70.3664 129.117 68.8202C129.106 68.4416 129.192 68.1433 129.597 68.0011C130.491 67.6843 131.621 68.3021 132.225 68.9357C132.657 69.3865 132.956 69.9582 133.084 70.5678C133.224 71.2282 133.36 71.8398 133.232 72.5242C133.046 73.5069 132.427 74.4786 131.441 74.7714ZM141.513 64.3101C136.88 58.9012 129.463 55.4033 122.631 58.4449C118.237 60.5896 119.643 66.4872 120.623 73.2787C122.089 83.4527 121.936 91.2456 134.622 87.5223C143.913 84.7976 148.495 71.9422 141.513 64.3101Z" fill="#02777C"/>
<path d="M42.3664 20.0154C41.537 16.2708 40.7343 12.5153 38.6919 9.14392C38.2006 8.33028 37.6556 7.58944 36.9121 6.99089C34.8718 5.34849 31.5354 5.21656 29.7123 6.82735C28.8725 7.56815 28.107 8.48076 27.6053 9.45795C26.1581 12.2686 25.0902 15.216 24.682 18.3537C24.561 19.2718 24.4243 20.1982 24.1666 21.0867C23.9061 21.9753 23.232 22.1574 22.4699 21.6021C22.1208 21.3472 21.8205 21.0036 21.5786 20.649C21.2432 20.1604 20.956 19.6395 20.7037 19.1083C19.9465 17.5085 19.2489 15.8819 18.4676 14.2924C17.6196 12.5641 16.7469 10.8619 15.3079 9.46621C14.3822 8.56667 13.3699 8.45394 12.2292 8.70339C11.0128 8.96934 10.1057 9.70741 9.40273 10.6764C8.58084 11.8041 8.01732 13.0472 7.63043 14.3701C6.94323 16.7168 6.69928 19.1193 6.76663 21.532C6.83603 24.1283 6.98927 26.7266 7.27652 29.3063C7.48543 31.2016 7.89088 33.0887 8.35818 34.9462C8.88939 37.0531 9.77037 39.0398 11.0293 40.8595C12.0519 42.3363 13.3995 43.4585 14.978 44.3147C17.6299 45.751 20.3979 44.58 21.1305 41.735C21.2996 41.0828 21.3504 40.3929 21.38 39.7187C21.4391 38.4302 21.0659 37.2036 20.6715 35.9982C20.086 34.2026 19.4208 32.431 18.7926 30.6512C18.5453 29.9502 18.269 29.2555 18.438 28.3559C19.3129 28.8363 19.7857 29.5372 20.2798 30.2024C20.9883 31.1556 21.6541 32.1383 22.3654 33.0887C23.0471 33.993 23.9439 34.6424 25.1032 34.8437C27.3772 35.2389 28.676 34.4039 29.3446 32.9409C29.6264 32.3183 29.9054 31.6874 30.1019 31.0373C30.6091 29.3413 31.0626 27.6337 31.554 25.9349C31.6749 25.5075 31.7175 25.0381 32.1979 24.5172C32.281 25.1962 32.3807 25.6957 32.3992 26.2002C32.4425 27.3437 32.4721 28.4899 32.4583 29.6334C32.4315 31.9342 32.7964 34.1971 33.2019 36.449C33.4197 37.6571 34.0368 38.712 34.9309 39.5978C36.2379 40.8918 38.2432 41.0691 39.7598 39.995C40.6271 39.3861 41.3088 38.6185 41.7947 37.6764C43.0942 35.1475 43.5504 32.4578 43.5477 29.6684C43.5422 26.4042 43.0701 23.1909 42.3664 20.0154Z" fill="#02777C"/>
<path d="M100.228 23.7256C97.3687 14.1824 84.1889 28.8658 88.7492 14.2628C89.5979 11.3663 90.516 8.48347 91.3612 5.58418C92.9184 0.876181 89.1416 -0.0288598 85.2596 0.000689776C79.9393 0.0920872 78.6803 3.64353 78.0041 7.71037C77.3087 14.2546 76.4524 20.7486 77.1691 27.132C77.3196 32.4818 82.4737 33.6336 86.8944 34.1785C89.222 34.5029 91.5543 34.7929 93.9279 34.6719C99.4173 34.4761 101.023 28.1278 100.228 23.7256Z" fill="#02777C"/>
<path d="M118.174 20.1446C118.01 21.519 114.961 21.7471 114.976 19.656C114.99 17.7717 115.973 14.6628 117.522 16.9257C118.056 17.806 118.337 18.7729 118.174 20.1446ZM129.864 23.0865C128.45 15.3713 125.808 3.33226 118.716 1.73246C110.885 -0.0315744 107.208 8.26087 105.259 14.4539C103.165 21.097 100.457 27.376 103.125 33.3594C104.36 36.1274 107.522 36.8304 110.105 35.1337C111.595 34.1517 112.893 31.5961 113.514 30.1756C114.44 28.0474 115.849 27.6179 116.716 28.694C117.414 29.5585 117.623 31.3947 117.986 34.1002C118.818 40.2932 128.906 38.5485 130.034 32.8255C130.345 31.4428 130.57 27.591 129.864 23.0865Z" fill="#02777C"/>
<path d="M57.6275 18.0183C57.5526 15.8654 59.799 13.8766 61.5067 15.8922C64.2906 19.669 58.0329 23.5963 57.6275 18.0183ZM73.9134 15.4572C68.9044 -8.19965 41.4274 2.36332 45.7897 23.4624C46.9999 30.9652 53.2899 36.2264 60.9968 35.2361C70.3517 34.5517 75.527 23.964 73.9134 15.4572Z" fill="#02777C"/>
<path d="M145.441 19.6264C143.629 20.0264 144.711 16.3863 145.36 15.5005C146.139 14.4374 147.672 14.9205 147.819 16.2653C147.988 17.7902 146.807 19.3254 145.441 19.6264ZM157.443 32.7182C155.547 30.6642 153.306 28.9036 151.623 26.6675C160.892 24.955 163.262 13.9405 154.259 8.8058C150.235 6.51056 145.522 4.89427 140.907 5.60071C137.066 6.04601 135.514 9.69709 134.797 13.0547C133.463 20.4181 132.016 28.149 132.872 35.6278C133.27 39.7592 139.621 42.2579 141.433 37.6839C142.042 36.4387 142.365 35.1743 142.904 33.872C144.595 36.8064 146.794 39.1951 149.795 40.8086C152.2 42.0943 155.467 42.4325 157.365 39.6974C158.734 37.7162 159.394 34.7097 157.443 32.7182Z" fill="#02777C"/>
<path d="M76.4087 42.6661C75.4776 48.2469 75.9311 53.1514 76.6265 55.7016C77.3213 58.2518 80.7979 58.8318 82.3063 56.397C83.8126 53.9623 83.3481 49.7608 83.3481 49.7608C85.0846 53.2669 86.9401 56.6279 89.4896 57.0918C92.0398 57.5536 93.6911 55.5862 94.3859 53.036C95.0814 50.4858 96.0963 41.4477 94.3564 39.8259C92.6198 38.2021 90.5527 38.0331 89.0415 40.9323C87.7475 43.4124 87.0713 47.7342 87.0713 47.7342C84.9857 42.4029 82.7358 39.1284 80.5347 38.2021C78.3363 37.2757 76.7929 40.3791 76.4087 42.6661Z" fill="#02777C"/>
<path d="M103.555 49.1917C102.887 49.1917 102.713 45.898 103.317 45.4658C103.985 44.9881 106.229 45.8018 106.087 47.3287C105.942 48.8564 104.224 49.1917 103.555 49.1917ZM113.128 48.6255C112.867 43.4605 109.163 40.5 106.973 39.6733C104.787 38.8466 101.223 37.9334 99.5693 38.5402C97.9393 39.1387 97.8534 45.4018 97.6795 49.7827C97.4995 54.1664 98.3289 57.6367 101.386 57.6367C104.446 57.6367 113.515 56.2279 113.128 48.6255Z" fill="#02777C"/>
<path d="M64.2852 47.8497C62.9266 47.5033 64.2076 44.9208 64.9532 44.9669C65.45 44.9992 65.5414 45.898 65.6033 46.4086C65.6672 46.9213 65.6136 48.1878 64.2852 47.8497ZM71.2322 45.2699C69.842 40.9804 67.1763 35.8828 61.6464 39.013C56.1137 42.1404 51.403 56.2919 54.5462 57.8999C59.5284 60.4501 62.3095 55.8143 62.7741 54.7725C63.238 53.7286 64.5106 50.9476 65.4391 54.075C66.3654 57.2045 69.4956 59.8702 72.274 58.5954C75.0578 57.32 72.6231 49.5573 71.2322 45.2699Z" fill="#02777C"/>
</svg>
