<svg width="346" height="109" viewBox="0 0 346 109" fill="none" xmlns="http://www.w3.org/2000/svg">
<path d="M23.2122 62.6694C18.0294 68.6553 -0.399154 90.376 0.00659654 96.1252C0.47862 101.731 57.5936 108.42 90.6352 108.42C123.677 108.42 221.386 87.1411 270.948 88.0868C302.63 88.6913 326.175 91.1475 338.693 92.9948C341.362 93.3886 343.326 90.3369 341.799 88.1125L316.223 50.8455C315.421 49.6763 315.546 48.105 316.525 47.0784L341.929 20.4174C343.277 19.003 342.945 16.692 341.251 15.7183C331.152 9.91325 314.958 1.06842 287.941 0.135274C247.819 -1.25055 207.697 8.17384 152.47 20.941C110.888 30.5537 41.2374 21.6533 6.16399 15.0538C3.68426 14.5872 1.74029 17.188 2.90278 19.4275L23.6036 59.307C24.175 60.4078 24.024 61.7318 23.2122 62.6694Z" fill="#EBC34D"/>
<path d="M53.5976 73.9319C52.096 73.757 50.7366 73.3418 49.5193 72.6864C48.3207 72.0331 47.3057 71.1919 46.4744 70.1629C45.664 69.1172 45.0703 67.9256 44.6934 66.588C44.3375 65.2339 44.2503 63.7778 44.4318 62.2199C44.6723 60.1552 45.3233 58.4047 46.3848 56.9683C47.4484 55.5131 48.8095 54.4446 50.468 53.7627C52.1452 53.0829 53.9881 52.86 55.9965 53.0939C58.0424 53.3323 59.794 53.9739 61.2514 55.0188C62.7087 56.0637 63.7877 57.4165 64.4884 59.0771C65.2079 60.74 65.4474 62.6038 65.2069 64.6685C65.0276 66.2076 64.5997 67.5941 63.9233 68.828C63.2678 70.0454 62.4162 71.0686 61.3684 71.8978C60.3415 72.7104 59.1604 73.2957 57.825 73.6539C56.5084 74.0142 55.0992 74.1068 53.5976 73.9319ZM53.9696 70.4937C55.1521 70.6315 56.2288 70.4525 57.1998 69.9568C58.1707 69.4611 58.9708 68.7172 59.6 67.7252C60.2502 66.7165 60.6573 65.5083 60.8213 64.1005C60.9831 62.7115 60.8707 61.4714 60.4842 60.38C60.0976 59.2886 59.4867 58.4089 58.6513 57.7408C57.8159 57.0728 56.7976 56.6688 55.5963 56.5289C54.4138 56.3911 53.3393 56.5513 52.3727 57.0095C51.4062 57.4676 50.6094 58.1833 49.9823 59.1567C49.3762 60.1134 48.9912 61.2956 48.8272 62.7034C48.6611 64.1299 48.7691 65.4076 49.1512 66.5366C49.5356 67.6467 50.1432 68.5546 50.9742 69.2602C51.8074 69.947 52.8059 70.3582 53.9696 70.4937Z" fill="#24373F"/>
<path d="M75.9443 76.1331C74.5694 76.0208 73.4938 75.6107 72.7173 74.9027C71.9409 74.1947 71.5227 73.2789 71.4628 72.1554L71.6911 72.1456L70.9461 81.2708L66.7084 80.9248L68.3575 60.7251L72.5104 61.0641L72.2498 64.2565L72.0001 64.1792C72.2934 63.1414 72.9261 62.3589 73.8982 61.8315C74.8718 61.2853 76.0367 61.0676 77.3927 61.1783C78.6923 61.2844 79.7876 61.6866 80.6785 62.385C81.5899 63.0661 82.2544 63.9831 82.6723 65.1358C83.1089 66.2901 83.2657 67.6206 83.1427 69.1273C83.0182 70.6529 82.6367 71.9584 81.9982 73.0439C81.3598 74.1293 80.5255 74.9429 79.4954 75.4844C78.4652 76.026 77.2816 76.2422 75.9443 76.1331ZM75.0345 72.646C76.0328 72.7275 76.8718 72.4358 77.5518 71.7708C78.2318 71.1059 78.6256 70.1142 78.7332 68.7958C78.8408 67.4774 78.6029 66.4436 78.0194 65.6945C77.4548 64.9469 76.6639 64.5315 75.6469 64.4485C74.6675 64.3686 73.8284 64.6603 73.1296 65.3237C72.4512 65.9698 72.0582 66.9521 71.9505 68.2705C71.8429 69.5889 72.0706 70.6313 72.6338 71.3978C73.2172 72.1469 74.0175 72.563 75.0345 72.646Z" fill="#24373F"/>
<path d="M92.0562 77.1605C90.4517 77.0854 89.0694 76.7086 87.9093 76.0301C86.7502 75.3326 85.8667 74.4022 85.259 73.2387C84.6702 72.0761 84.4102 70.7586 84.4791 69.2863C84.5489 67.7951 84.9307 66.5076 85.6246 65.4239C86.3382 64.3223 87.2948 63.4873 88.4942 62.9192C89.6946 62.3321 91.0687 62.0748 92.6165 62.1472C94.1078 62.2169 95.3867 62.5794 96.4532 63.2347C97.5198 63.8899 98.3299 64.7697 98.8837 65.8739C99.4374 66.9781 99.6802 68.2569 99.6123 69.7104C99.5981 70.0124 99.5754 70.2951 99.5442 70.5585C99.5139 70.803 99.4745 71.0376 99.4262 71.2624L86.9112 70.677L87.0423 67.8739L96.1312 68.299L95.3712 68.7742C95.426 67.6039 95.183 66.7318 94.6423 66.1579C94.1214 65.566 93.3796 65.2475 92.4169 65.2025C91.3032 65.1504 90.4172 65.4873 89.759 66.2132C89.1196 66.94 88.7646 68.0585 88.694 69.5686C88.6251 71.0409 88.8759 72.1499 89.4464 72.8954C90.0358 73.6419 90.9439 74.0438 92.1709 74.1012C92.8504 74.133 93.4409 74.0471 93.9423 73.8435C94.4437 73.64 94.829 73.2891 95.0982 72.7909L99.0905 72.9776C98.5533 74.3524 97.69 75.4187 96.5005 76.1765C95.3309 76.9164 93.8494 77.2443 92.0562 77.1605Z" fill="#24373F"/>
<path d="M102.181 77.317L102.248 62.861L106.415 62.8803L106.399 66.2817L106.484 66.2821L106.433 77.3367L102.181 77.317ZM112.243 77.3636L112.285 68.4065C112.289 67.6129 112.084 67.0167 111.67 66.6179C111.275 66.2192 110.69 66.0181 109.915 66.0145C109.254 66.0115 108.658 66.1599 108.127 66.4598C107.616 66.7598 107.207 67.1736 106.903 67.7013C106.617 68.2291 106.472 68.852 106.469 69.5701L106.116 66.082C106.594 65.0259 107.287 64.1882 108.197 63.5688C109.126 62.9306 110.262 62.6146 111.603 62.6209C113.209 62.6283 114.436 63.0875 115.282 63.9985C116.128 64.8906 116.548 66.0925 116.541 67.6042L116.495 77.3833L112.243 77.3636Z" fill="#24373F"/>
<path d="M120.108 77.2485L119.592 62.8015L123.841 62.6499L124.357 77.0968L120.108 77.2485ZM119.381 60.8803L119.218 56.2913L123.75 56.1295L123.914 60.7186L119.381 60.8803Z" fill="#24373F"/>
<path d="M127.811 77.049L126.541 62.6487L130.691 62.2826L130.99 65.6708L131.075 65.6634L132.046 76.6753L127.811 77.049ZM137.835 76.1646L137.047 67.2422C136.978 66.4516 136.718 65.8769 136.269 65.5181C135.839 65.1577 135.238 65.0115 134.466 65.0796C133.808 65.1377 133.228 65.3406 132.727 65.6883C132.246 66.0343 131.878 66.4842 131.623 67.0378C131.387 67.5898 131.301 68.2234 131.364 68.9387L130.69 65.4981C131.068 64.4025 131.681 63.5042 132.53 62.8033C133.396 62.0819 134.497 61.6623 135.833 61.5443C137.433 61.4032 138.697 61.747 139.624 62.5758C140.549 63.3858 141.078 64.5438 141.211 66.0497L142.07 75.791L137.835 76.1646Z" fill="#24373F"/>
<path d="M153.139 80.1115C151.174 80.5013 149.488 80.4024 148.081 79.8147C146.692 79.2233 145.745 78.236 145.239 76.8529L149.187 76.0696C149.405 76.3924 149.774 76.5986 150.293 76.6884C150.83 76.7744 151.478 76.7421 152.238 76.5913C153.499 76.3412 154.369 75.9182 154.848 75.3223C155.326 74.7264 155.465 73.9187 155.263 72.8992L154.65 69.813L154.884 69.8245C154.904 70.8993 154.53 71.8308 153.762 72.619C152.99 73.3886 151.946 73.904 150.63 74.1651C149.37 74.4152 148.21 74.3467 147.15 73.9596C146.106 73.5503 145.219 72.8689 144.491 71.9154C143.762 70.9618 143.256 69.7714 142.973 68.3442C142.686 66.8984 142.705 65.5846 143.029 64.4029C143.353 63.2212 143.939 62.2382 144.785 61.4538C145.65 60.6657 146.731 60.143 148.028 59.8856C149.363 59.6208 150.51 59.7208 151.469 60.1855C152.446 60.6466 153.118 61.4092 153.483 62.4734L153.294 62.5398L152.643 59.259L156.73 58.4481L159.422 72.0162C159.827 74.0551 159.468 75.7927 158.347 77.2289C157.229 78.6836 155.493 79.6445 153.139 80.1115ZM151.441 70.6809C152.424 70.486 153.155 69.9942 153.634 69.2055C154.11 68.3984 154.222 67.3646 153.972 66.1041C153.722 64.8437 153.216 63.9424 152.453 63.4001C151.706 62.8357 150.831 62.6527 149.83 62.8513C148.866 63.0425 148.137 63.5436 147.643 64.3544C147.168 65.1616 147.055 66.1954 147.305 67.4558C147.555 68.7163 148.052 69.6194 148.796 70.1654C149.559 70.7076 150.441 70.8794 151.441 70.6809Z" fill="#24373F"/>
<path d="M169.506 70.1423L164.987 50.2401L171.621 48.7339L181.505 66.6623L179.1 67.2083L180.273 46.7696L186.935 45.2572L191.454 65.1594L187.252 66.1133L183.003 47.3997L183.722 47.2365L182.58 67.1739L178.185 68.1717L168.64 50.8352L169.331 50.6783L173.542 69.226L169.506 70.1423Z" fill="#24373F"/>
<path d="M204.859 62.2883C204.661 61.9053 204.486 61.4887 204.332 61.0385C204.196 60.5843 204.064 60.0523 203.934 59.4424L203.823 59.466L202.399 52.7848C202.277 52.2119 201.988 51.8097 201.533 51.5782C201.093 51.3243 200.503 51.2761 199.764 51.4337C199.061 51.5833 198.523 51.8236 198.149 52.1545C197.794 52.4814 197.601 52.8896 197.57 53.3793L193.605 54.2241C193.518 52.9095 193.95 51.7162 194.9 50.6442C195.85 49.5723 197.305 48.8276 199.264 48.4101C201.297 47.9768 202.946 48.0988 204.211 48.7759C205.476 49.4531 206.29 50.6419 206.652 52.3422L207.981 58.5798C208.08 59.0419 208.208 59.5073 208.366 59.976C208.538 60.4223 208.755 60.8977 209.017 61.4021L204.859 62.2883ZM199.983 63.6172C198.579 63.9165 197.386 63.8036 196.404 63.2786C195.419 62.735 194.8 61.8718 194.548 60.689C194.269 59.3768 194.534 58.2189 195.344 57.2154C196.169 56.1896 197.443 55.3674 199.166 54.749L203.172 53.2866L203.686 55.6985L200.361 56.9578C199.645 57.2262 199.144 57.5457 198.855 57.9163C198.567 58.2868 198.478 58.7308 198.589 59.2483C198.687 59.7104 198.928 60.0261 199.312 60.1954C199.696 60.3648 200.165 60.3904 200.72 60.2723C201.588 60.0871 202.278 59.6986 202.79 59.1065C203.297 58.496 203.484 57.8766 203.35 57.2482L204.211 59.3833C204.029 60.5234 203.579 61.4501 202.862 62.1633C202.144 62.8765 201.185 63.3612 199.983 63.6172Z" fill="#24373F"/>
<path d="M213.106 66.5065L215.352 57.065L215.844 55.7284L217.581 44.9994L222.034 44.1387L217.281 65.6996L213.106 66.5065ZM214.955 59.942L206.811 47.0813L211.319 46.2098L218.253 58.0343L214.955 59.942Z" fill="#24373F"/>
<path d="M232.769 56.9155L232.267 53.5513C233.892 51.7614 235.24 50.2324 236.312 48.9643C237.399 47.6748 238.245 46.5552 238.848 45.6054C239.471 44.6528 239.889 43.807 240.103 43.0681C240.318 42.3292 240.374 41.6139 240.271 40.9224C240.148 40.1 239.829 39.498 239.313 39.1164C238.814 38.7132 238.171 38.5702 237.386 38.6873C236.564 38.81 235.92 39.1641 235.453 39.7496C234.986 40.3351 234.753 41.0768 234.753 41.9748L230.436 42.6188C230.357 40.6818 230.909 39.0708 232.093 37.7861C233.275 36.4826 234.93 35.6719 237.061 35.3541C239.229 35.0307 241.004 35.339 242.386 36.2792C243.766 37.2007 244.603 38.652 244.899 40.6332C245.038 41.5677 245.013 42.4885 244.824 43.3957C244.653 44.3 244.281 45.2631 243.707 46.2848C243.134 47.3066 242.312 48.4608 241.243 49.7476C240.19 51.0128 238.852 52.483 237.23 54.158L236.004 53.0511L246.91 51.4242L247.403 54.7324L232.769 56.9155Z" fill="#24373F"/>
<path d="M258.66 53.7934C256.967 53.9563 255.41 53.66 253.99 52.9044C252.586 52.1282 251.432 50.9863 250.528 49.4786C249.622 47.9522 249.07 46.1638 248.873 44.1135C248.675 42.0632 248.879 40.2307 249.483 38.6158C250.085 36.9822 251.003 35.6694 252.236 34.6775C253.487 33.6649 254.958 33.0771 256.651 32.9143C258.363 32.7496 259.92 33.0459 261.321 33.8033C262.721 34.5419 263.873 35.6556 264.775 37.1444C265.676 38.6144 266.225 40.3746 266.422 42.4249C266.621 44.494 266.421 46.3548 265.82 48.0072C265.22 49.6596 264.296 51.0016 263.047 52.0329C261.815 53.0437 260.353 53.6305 258.66 53.7934ZM258.313 50.1819C259.272 50.0896 260.031 49.6938 260.59 48.9945C261.15 48.2953 261.529 47.4045 261.729 46.3221C261.928 45.2398 261.968 44.0779 261.849 42.8365C261.729 41.595 261.47 40.4809 261.072 39.4941C260.673 38.5073 260.134 37.7428 259.456 37.2006C258.777 36.6584 257.958 36.4335 256.999 36.5258C256.039 36.6181 255.279 37.0045 254.718 37.6849C254.155 38.3466 253.772 39.1998 253.569 40.2445C253.366 41.2892 253.323 42.4228 253.441 43.6455C253.562 44.9058 253.824 46.0481 254.226 47.0725C254.628 48.0969 255.171 48.899 255.853 49.4788C256.552 50.038 257.372 50.2724 258.313 50.1819Z" fill="#24373F"/>
<path d="M269.7 52.5346L269.596 49.1347C271.419 47.5477 272.937 46.1874 274.151 45.0538C275.382 43.9007 276.353 42.888 277.064 42.0155C277.793 41.1425 278.308 40.3516 278.608 39.643C278.908 38.9343 279.047 38.2305 279.025 37.5317C279 36.7006 278.754 36.0653 278.287 35.6259C277.838 35.1669 277.217 34.9496 276.423 34.9738C275.592 34.9992 274.911 35.2752 274.378 35.8019C273.846 36.3286 273.528 37.0379 273.423 37.9296L269.059 38.0629C269.208 36.13 269.946 34.595 271.273 33.4579C272.598 32.302 274.338 31.6912 276.491 31.6254C278.682 31.5585 280.409 32.0729 281.671 33.1687C282.933 34.2456 283.595 35.7852 283.656 37.7873C283.685 38.7317 283.552 39.6432 283.257 40.5219C282.981 41.4 282.499 42.3127 281.809 43.2602C281.12 44.2076 280.169 45.2576 278.956 46.41C277.762 47.543 276.261 48.8461 274.453 50.3192L273.366 49.0763L284.387 48.7397L284.489 52.0829L269.7 52.5346Z" fill="#24373F"/>
<path d="M294.154 52.671C292.058 52.5718 290.366 51.9524 289.077 50.813C287.788 49.6736 287.029 48.1242 286.8 46.1648L291.132 46.37C291.242 47.2455 291.587 47.9523 292.167 48.4906C292.747 49.01 293.425 49.288 294.199 49.3246C295.086 49.3667 295.808 49.0982 296.365 48.5192C296.942 47.9222 297.26 47.0009 297.319 45.7551C297.375 44.5659 297.163 43.6478 296.683 43.0007C296.204 42.3348 295.521 41.9808 294.634 41.9388C294.124 41.9147 293.637 42.0146 293.172 42.2385C292.708 42.4435 292.313 42.8032 291.986 43.3174L288.022 43.1296L289.612 31.7405L301.333 32.2958L301.175 35.6368L290.982 35.1539L293.319 34.9525L292.507 41.2989L291.101 41.0336C291.628 40.283 292.251 39.726 292.968 39.3627C293.705 38.9814 294.621 38.8167 295.715 38.8686C297.018 38.9303 298.146 39.2675 299.101 39.8803C300.056 40.4931 300.783 41.3221 301.282 42.3673C301.781 43.4125 301.997 44.6335 301.931 46.0303C301.862 47.5026 301.491 48.7431 300.819 49.7518C300.146 50.7604 299.24 51.5215 298.1 52.035C296.96 52.5297 295.645 52.7417 294.154 52.671Z" fill="#24373F"/>
</svg>
