<svg width="2838" height="3954" viewBox="0 0 2838 3954" fill="none" xmlns="http://www.w3.org/2000/svg">
<g clip-path="url(#clip0_124_1905)">
<rect width="2838" height="3954" fill="white"/>
<g clip-path="url(#clip1_124_1905)">
<g clip-path="url(#clip2_124_1905)">
<path d="M527.711 1107.68C617.159 1157.97 681.419 1244.19 768.281 1298.84C875.069 1366.01 1006.67 1379.86 1132.83 1379.2C1258.98 1378.53 1386.11 1365.19 1510.7 1385.02C1809.5 1432.57 2056.7 1676.19 2150.21 1963.93C2243.72 2251.67 2196.91 2573.05 2065.44 2845.55C1991.96 2997.85 1890.3 3140.35 1751.38 3236.77C1532.34 3388.81 1251.03 3409.31 984.844 3424.81C862.063 3431.97 738.38 3439.09 616.481 3422.74C494.582 3406.39 373.16 3364.88 279.71 3284.92C121.645 3149.67 68.3578 2930.75 34.0008 2725.57C-18.7862 2410.34 -47.5762 2091.1 -52.1762 1771.52C-54.1112 1637.02 -65.6392 1490.02 -39.3332 1357.25C-22.0302 1269.92 34.1368 1216.45 100.941 1161.87C223.653 1061.6 383.524 1026.6 527.711 1107.68Z" fill="#218A8D"/>
<path d="M681.149 956.154C778.132 1113.87 1041.94 1122.95 1160.93 1042.07C1279.92 961.182 1223.66 820.021 1162.98 792.967C1102.3 765.914 1020.18 771.386 944.798 679.23C869.415 587.075 761.528 478.071 671.325 546.313C581.123 614.555 612.132 843.921 681.149 956.154Z" fill="#A7D8CB"/>
<path d="M442.727 1537.72C596.122 1622.5 693.422 1799.61 682.719 1974.55C801.63 1937.41 935.664 1985.19 1025.27 2071.73C1114.88 2158.27 1165.75 2277.8 1196.29 2398.58C1236.15 2556.19 1244.83 2723.69 1204.5 2881.18C1164.17 3038.67 1072.37 3185.37 938.263 3277.27C804.154 3369.16 626.847 3401.31 473.559 3347.15C336.619 3298.77 302.964 3077.16 158.738 3060.06C-38.3215 3036.7 -122.797 2999.61 -150.617 2857.06C-198.218 2613.17 -48.9555 2155.29 -54.4725 1906.86C-58.0365 1746.4 -99.4215 1550.04 91.7805 1498.05C207.873 1466.48 337.078 1479.32 442.727 1537.72Z" fill="#FFE3C5"/>
<path d="M894.297 2046.54C885.352 1610.64 1301.55 1214.03 1773.39 1258.73C2245.22 1303.43 2405.5 1645.63 2475.03 1889C2544.57 2132.37 2168.6 2640.67 1586.75 2585.19C1004.89 2529.71 900.29 2338.6 894.297 2046.54Z" fill="#EBBFBF"/>
<path d="M580.234 2439.31C919.758 2005 1214.04 2187.55 1539.6 2378.84C1709.45 2478.64 1959.32 2446.77 2103.85 2289.03C2219.96 2162.3 2218.21 1930.88 2111.23 1746.79C1958.26 1483.59 1493.92 1487.57 1474.98 1300.26C1456.04 1112.95 1661.08 964.115 1849.4 1126.28C2037.71 1288.44 1995.33 1445.03 2147.56 1599.68C2237.64 1691.19 2411.73 1740.92 2571.27 1612.76C2730.82 1484.6 2673.28 1246.59 2908.67 1332.9C3144.07 1419.21 3086.53 1769.69 3065.6 2177.71C3044.68 2585.73 3332.39 3319.25 2804.05 3348.74C2275.72 3378.22 672.422 3506.38 559.955 3333.76C447.489 3161.14 404.35 2664.3 580.234 2439.31Z" fill="#F36A3A"/>
<path d="M3172.19 2684.72C3129.37 2554.2 3057.09 2429.83 2947.93 2346.44C2869.11 2286.23 2812.69 2243.68 2671.07 2247.24C2165.49 2273.67 1967.82 2673.31 2004.15 2950.74C1720.89 3034.05 1648.99 3300.54 1682.63 3548C1651.27 3650.47 1649.98 3763.19 1669.26 3869.45C1690.4 3985.93 1738.07 4102.69 1828.86 4178.66C1901.54 4239.49 1994.95 4268.87 2086.67 4292.72C2242.93 4333.34 2404.58 4362.18 2565.42 4348.13C2726.25 4334.08 2887.38 4273.53 2999.02 4156.9C3167.23 3981.19 3195.19 3717.95 3214.26 3475.45C3235.11 3210.48 3255.04 2937.27 3172.19 2684.72Z" fill="#FFC159"/>
<path d="M1196.75 3979.68C1196.75 3405.21 894.09 2914.83 -106.463 2914.83V3979.68H1196.75Z" fill="#218A8D"/>
<path d="M1876.7 674.151C1861.67 759.732 1908.32 852.494 1985.97 891.478C2023.57 910.353 2066.93 915.867 2108.43 909.363C2109.86 934.795 2115.41 959.928 2125.51 983.561C2167.31 1081.4 2285.66 1141.05 2387.96 1111.83C2450.95 1093.84 2503.79 1044.54 2527.68 983.721C2577.89 996.854 2631.41 996.34 2680.51 978.863C2793.86 938.514 2868.36 813.193 2856.04 694.576C2856.51 683.658 2855.9 672.692 2854.12 661.848C2842.17 589.045 2778.52 527.868 2705.31 518.802C2749.75 433.398 2730.4 319.504 2660.25 253.571C2590.09 187.639 2475.21 175.393 2392.73 225.055C2375.84 235.225 2360.61 247.814 2347.28 262.196C2344.45 259.665 2341.57 257.193 2338.63 254.794C2267.61 196.863 2162.72 181.051 2080.51 221.578C1998.31 262.104 1946.37 359.712 1964.95 449.46C1970.1 474.299 1980.85 497.641 1995.63 518.174C1935.45 551.119 1888.49 606.955 1876.7 674.151Z" fill="#3D613C"/>
<path d="M2350.22 391.292C2067.5 428.487 2107.54 669.73 2167.86 790.374C2228.18 911.018 2352.97 928.253 2499.55 872.24C2646.13 816.226 2630.8 639.661 2597.53 555.595C2564.26 471.529 2478.03 374.478 2350.22 391.292Z" fill="#A7D8CB"/>
<path d="M845.277 3906.77C933.118 3990.51 1077.06 4008.14 1182.52 3948.07C1233.58 3918.99 1273.57 3872.86 1298.16 3819.58C1328.83 3837.61 1362.34 3850.63 1397.63 3857.2C1543.72 3884.38 1704.71 3793.03 1749.99 3651.49C1777.86 3564.33 1761.49 3464.73 1709.3 3389.86C1763.45 3341.67 1804.31 3279.06 1822.02 3208.46C1862.91 3045.46 1774.94 2861.8 1627.53 2784.25C1615.2 2775.25 1601.98 2767.46 1588 2761.13C1494.12 2718.64 1373.72 2745.23 1306.47 2823.31C1241.63 2705.5 1094.26 2639.78 963.284 2670.27C832.308 2700.75 729.103 2824.79 722.945 2959.13C721.683 2986.64 724.521 3014.09 730.917 3040.72C725.783 3042.05 720.677 3043.49 715.609 3045.05C593.267 3082.73 493.65 3192.4 477.087 3319.34C460.524 3446.28 533.755 3582.24 652.466 3630.15C685.321 3643.41 720.778 3649 756.094 3647.72C747.779 3743.18 776.307 3841.01 845.277 3906.77Z" fill="#A7D8CB"/>
<path d="M883.248 3137.29C707.509 3494.72 1018.93 3635.02 1205.88 3658.35C1392.83 3681.67 1509.51 3549.98 1557.93 3336.22C1606.35 3122.46 1389.25 3003.52 1265.77 2977.08C1142.29 2950.64 962.694 2975.71 883.248 3137.29Z" fill="#FFC159"/>
<path d="M226.372 1235.26C672.087 1127.67 626.681 365.398 149.546 365.398V365.149H-56.1007L-23.3437 2133.95C687.161 2050.56 664.403 1335.16 226.372 1235.26Z" fill="#FFC159"/>
<path d="M2713.92 3827.11C2702.33 3674.06 2609.6 3358.1 2259.95 3302.17C1910.3 3246.23 1845.47 3485.65 1678.44 3470.15C1342.54 3438.99 1095.18 3618.29 1075.26 3979.92L1222.02 4008.1H2734.13L2713.92 3827.11Z" fill="#3D613C"/>
<path d="M963.233 513.859C827.048 618.197 894.283 762.338 1032.41 809.374C1170.55 856.41 1234.42 774.509 1230.64 684.929C1226.85 595.35 1096.32 411.893 963.233 513.859Z" fill="#F36A3A"/>
</g>
<path d="M1300.28 2054.7C1300.71 2073.89 1285.51 2089.79 1266.32 2090.22C1247.14 2090.65 1231.24 2075.44 1230.81 2056.26C1230.38 2037.07 1245.58 2021.17 1264.77 2020.74C1283.95 2020.31 1299.85 2035.52 1300.28 2054.7Z" fill="#20353D"/>
<path d="M1793.5 1897.88C1793.93 1917.07 1778.73 1932.97 1759.54 1933.4C1740.36 1933.83 1724.46 1918.62 1724.03 1899.44C1723.6 1880.25 1738.8 1864.35 1757.99 1863.92C1777.17 1863.5 1793.07 1878.7 1793.5 1897.88Z" fill="#20353D"/>
<path d="M1504.23 2055.02C1378.96 2095.35 1338.54 2084.56 1356.12 2150.25C1373.7 2215.94 1507.13 2256.66 1583.1 2232.57C1659.08 2208.48 1738.72 2121.84 1717.12 2046.42C1695.51 1971.01 1578.43 2031.13 1504.23 2055.02Z" fill="#F36A3A"/>
<path d="M1417.48 2082.4C1428.76 2126.6 1434.59 2154.26 1475.35 2142.61C1516.11 2130.96 1522.66 2118.63 1499 2050.56L1417.48 2082.4Z" fill="white"/>
<path d="M1522.97 2042.37C1529.03 2087.58 1531.59 2115.73 1573.43 2108.9C1615.27 2102.08 1623.22 2090.59 1607.64 2020.23L1522.97 2042.37Z" fill="white"/>
<path d="M27 33H0M2811 33H2838M27 3921H0M2811 3921H2838M33 27V0M33 3927V3954M2805 27V0M2805 3927V3954" stroke="white" stroke-width="1.25"/>
<path d="M27 33H0M2811 33H2838M27 3921H0M2811 3921H2838M33 27V0M33 3927V3954M2805 27V0M2805 3927V3954" stroke="black" stroke-width="0.25"/>
</g>
</g>
<defs>
<clipPath id="clip0_124_1905">
<rect width="2838" height="3954" fill="white"/>
</clipPath>
<clipPath id="clip1_124_1905">
<rect width="2838" height="3954" fill="white"/>
</clipPath>
<clipPath id="clip2_124_1905">
<rect width="2790" height="3906" fill="white" transform="translate(24 24)"/>
</clipPath>
</defs>
</svg>
