<svg width="2838" height="3954" viewBox="0 0 2838 3954" fill="none" xmlns="http://www.w3.org/2000/svg">
<g clip-path="url(#clip0_124_2022)">
<rect width="2838" height="3954" fill="white"/>
<g clip-path="url(#clip1_124_2022)">
<g clip-path="url(#clip2_124_2022)">
<path d="M1437.01 509.344C1270.44 598.802 1134.64 749.56 1077.19 929.688C1019.74 1109.82 1045.76 1317.82 1157.8 1470.12C1260.29 1609.44 1422.75 1692.92 1587.9 1744.31C1730.5 1788.7 1888.16 1811.98 2027.03 1757.01C2221.62 1679.98 2330.01 1469.75 2377.27 1265.88C2419.03 1085.77 2425.26 891.116 2352.86 720.992C2193.08 345.547 1755.31 338.392 1437.01 509.344Z" fill="#FFC159"/>
<path d="M-216.363 739.312C491.12 702.142 709.422 1002.64 835.226 1267.18C961.03 1531.72 1780.52 1100.5 2139.78 1888.29C2499.04 2676.08 856.139 3742.95 856.139 3742.95L-706.248 3277.22L-216.363 739.312Z" fill="#FFE3C5"/>
<path d="M1090.55 925.941C1197.54 909.429 1296.96 826.581 1312.68 719.472C1329.79 602.854 1240.23 485.685 1126.25 455.651C1004.07 423.455 813.825 477.775 786.109 616.058C748.613 803.139 904.473 954.658 1090.55 925.941Z" fill="#EBBFBF"/>
<path d="M3079.63 1098.93C2978.03 1148.91 2672.82 1189.93 2575.84 1131.5C2478.86 1073.07 2414.8 963.461 2411.51 850.286C2407.7 719.446 2478.83 587.333 2440.93 462.043C2410.12 360.181 2302.24 287.591 2196.27 297.426C2090.31 307.26 1997.63 398.465 1986.09 504.258C1970.33 648.767 2085.8 769.183 2156.13 896.399C2240.49 1048.97 2262.74 1234.74 2216.79 1402.91C2189.76 1501.88 2135.25 1599.29 2044.97 1648.03C1954.7 1696.77 1825.12 1679.47 1771.76 1591.84C1729.61 1522.62 1743.78 1434.97 1740.98 1353.97C1738.19 1272.98 1699.71 1176.82 1619.19 1167.68C1555.24 1160.41 1498.02 1217.14 1482.31 1279.56C1466.6 1341.97 1482.02 1407.6 1499.03 1469.67C1516.05 1531.74 1534.88 1595.7 1525.82 1659.42C1514.39 1739.72 1459.4 1808.23 1394.17 1856.44C1328.93 1904.66 1253.18 1936.1 1180.21 1971.52C911.882 2101.74 663.884 2303.45 551.785 2579.84C439.686 2856.23 497.064 3213.02 737.411 3389.62C947.583 3544.06 1234.64 3531.66 1491.94 3488.98C2015.02 3402.23 2521.69 3217.46 2977.83 2947.13C3073.68 2890.33 3169.05 2828.26 3239.1 2741.62C3318.66 2643.21 3360.37 2519.02 3381.87 2394.31C3455.08 1969.71 3600.22 1530.06 3277.97 1244.06L3079.63 1098.93Z" fill="#A7D8CB"/>
<path d="M-213.565 1602.95C-152.741 1508.65 -18.2484 1463.01 80.0166 1517.2C111.554 1534.59 137.874 1560.41 169.68 1577.31C201.485 1594.2 243.343 1600.48 271.786 1578.38C308.22 1550.09 303.088 1495.23 309.775 1449.58C328.439 1322.2 473.24 1237.45 599.734 1261.41C726.228 1285.36 824.284 1396.8 858.524 1520.91C892.765 1645.01 871.666 1778.69 827.861 1899.75C785.461 2016.92 728.431 2145.1 617.414 2201.7C521.185 2250.76 403.726 2240.34 359.151 2234.22C249.463 2210.54 138.795 2186.54 36.6646 2140.04C-65.4654 2093.55 -159.772 2022.13 -213.564 1923.64C-267.355 1825.16 -274.389 1697.25 -213.565 1602.95Z" fill="#3D613C"/>
<path d="M-272.471 2017.56C7.98682 1949.77 311.822 1983.34 570.71 2110.74C680.478 2164.75 783.645 2236.37 859.218 2332.57C934.792 2428.78 980.89 2551.48 970.12 2673.34C1130.34 2585.91 1327.69 2579.19 1501.41 2635.19C1675.13 2691.19 1826.15 2805.74 1945.19 2944.1C2126.18 3154.49 2238.84 3451.08 2146.15 3712.67C2072.05 3921.81 1874.4 4073.6 1658.35 4124.12C1442.3 4174.65 1211.97 4133.03 1009.83 4041.55C807.685 3950.07 630.564 3811.32 465.793 3662.72C311.488 3523.57 164.633 3372.76 57.7028 3194.61C-138.093 2868.39 -185.809 2477.34 -229.232 2099.36" fill="#218A8D"/>
<path d="M2343.48 2944.06C2249.06 2918.98 2151.61 2892.41 2075.41 2831.26C1999.21 2770.12 1949.71 2664.4 1983.67 2572.8C2004.91 2515.52 2054.87 2471.77 2072.74 2413.35C2101.74 2318.54 2039.17 2222.8 1984.33 2140.18C1954.4 2095.08 1925.52 2048.27 1910.52 1996.26C1895.51 1944.24 1895.73 1885.75 1922.13 1838.5C1948.54 1791.24 2004.75 1759.01 2057.64 1770.54C2094.15 1778.5 2124.57 1805.02 2161.15 1812.64C2212.84 1823.42 2266.14 1793.11 2297.91 1750.94C2329.68 1708.77 2344.33 1656.51 2358.26 1605.59C2372.2 1554.66 2386.71 1502.39 2418.28 1460.07C2472.09 1387.91 2570.38 1356.93 2659.28 1371.06C2748.18 1385.18 2827.25 1439.2 2885.71 1507.65C2944.17 1576.1 2983.99 1658.41 3017.53 1741.95C3162.62 2103.4 3198.97 2511.35 3097.73 2887.44C3084.36 2937.12 3068.28 2986.98 3039.25 3029.44C2967.9 3133.84 2865.69 3128.13 2769.39 3070.13C2649.26 2997.76 2478.32 2979.89 2343.48 2944.06Z" fill="#3D613C"/>
<path d="M581.257 3285.01C703.126 2969.61 931.197 2971.32 1177.74 3010.57C1424.27 3049.82 1869.97 3185.6 1900.92 3472.49L1767.53 3787.43L581.257 3285.01Z" fill="#20353D"/>
<path d="M739.913 3352.2C760.597 3210.68 957.719 3199.83 1129.3 3312.93C1228.23 3378.14 1331.13 3224.04 1543.28 3356.54C1658.02 3428.2 1654.97 3622.34 1620.34 3725.09L739.913 3352.2Z" fill="#EBBFBF"/>
</g>
<mask id="mask0_124_2022" style="mask-type:luminance" maskUnits="userSpaceOnUse" x="581" y="2992" width="1320" height="796">
<path d="M581.3 3285L1767.5 3787.4L1900.9 3472.5C1870 3185.6 1424.3 3049.8 1177.7 3010.6C1112.7 3000.2 1049 2992.5 988.1 2992.5C818.3 2992.5 671 3052.8 581.3 3285Z" fill="white"/>
</mask>
<g mask="url(#mask0_124_2022)">
<path d="M971.577 2975.3C935.266 3083.61 973.051 3139.08 1054.06 3152.99C1135.07 3166.91 1146.79 3146.54 1172.87 3021.12C1198.95 2895.7 1016.69 2906.41 971.577 2975.3Z" fill="white"/>
<path d="M1243.81 3006.47C1207.49 3114.78 1237.66 3165.26 1318.67 3179.17C1399.68 3193.09 1411.4 3172.72 1437.48 3047.3C1463.56 2921.88 1288.92 2937.58 1243.81 3006.47Z" fill="white"/>
<path d="M1484.53 3088.15C1452.28 3176.34 1499.5 3191.25 1547.97 3209.22C1596.44 3227.2 1611.34 3179.98 1630.24 3129.35C1649.13 3078.72 1514.19 3042.19 1484.53 3088.15Z" fill="white"/>
<path d="M745.562 3034.66C762.683 3127 810.917 3115.79 861.789 3106.6C912.661 3097.41 901.455 3049.17 891.952 2995.97C882.448 2942.78 747.705 2980.01 745.562 3034.66Z" fill="white"/>
</g>
<g clip-path="url(#clip3_124_2022)">
<path d="M912.647 2852.56C903.059 2875.2 876.936 2885.78 854.299 2876.19C831.661 2866.6 821.082 2840.48 830.67 2817.84C840.257 2795.2 866.381 2784.63 889.018 2794.21C911.656 2803.8 922.235 2829.92 912.647 2852.56Z" fill="#20353D"/>
<path d="M1628.82 3009.99C1619.23 3032.62 1593.11 3043.2 1570.47 3033.62C1547.84 3024.03 1537.26 2997.9 1546.84 2975.27C1556.43 2952.63 1582.56 2942.05 1605.19 2951.64C1627.83 2961.23 1638.41 2987.35 1628.82 3009.99Z" fill="#20353D"/>
<path d="M82.995 2634.97C253.071 2632.35 422.521 2712.45 528.449 2845.53C642.302 2988.58 684.238 3184.72 820.456 3306.66C908.017 3385.05 1024.48 3422.76 1139.62 3446.3C1254.76 3469.83 1372.78 3481.45 1484.62 3517.53C1596.46 3553.62 1704.88 3618.6 1762.19 3721.2C1819.49 3823.8 1810.65 3968.33 1720.16 4043.3C1650.84 4100.73 1553.73 4106.74 1463.78 4110.14C1077.15 4124.77 690.53 4139.4 303.908 4154.03C148.054 4159.92 -15 4164.41 -155.532 4096.76C-359.965 3998.35 -470.564 3763.76 -484.329 3537.29C-507.779 3151.45 -385.292 2642.2 82.995 2634.97Z" fill="#FFC159"/>
<path d="M2157.91 2489.14C1829.07 2370.69 1465.32 2778.32 1833.74 3140.78C1703.63 3530.37 2123.78 3672.99 2347.8 3564.38C2758.35 3727.07 2924.53 3411.67 2849.92 3214.97C3121.23 3004.71 2978.79 2698.13 2788.87 2676.77C2778.7 2323.04 2327.31 2227.93 2157.91 2489.14Z" fill="#F36A3A"/>
<path d="M2232.64 2624.87C2027.81 2667.36 1913.85 3009.05 2086.81 3239.19C2259.77 3469.33 2615.87 3381.15 2697.26 3170.89C2778.65 2960.62 2690.48 2529.92 2232.64 2624.87Z" fill="#EBBFBF"/>
<path d="M1379.32 3937.4C1451.06 3827.98 1574.77 3764.73 1697.4 3719.08C1820.02 3673.43 1949.07 3639.57 2058.58 3567.97C2179.74 3488.76 2267.76 3369.5 2366.4 3263.57C2465.04 3157.64 2585.91 3059.03 2729.83 3043.63C2936.99 3021.45 3133.41 3194.15 3176.73 3397.94C3220.04 3601.74 3132.6 3817.67 2988.84 3968.47C2845.07 4119.27 2651.65 4213.28 2454.92 4281.87C2247.31 4354.25 2031.06 4401.84 1812.24 4423.29C1552.13 4448.79 1178.69 4243.38 1379.32 3937.4Z" fill="#3D613C"/>
<path d="M589.912 808.561C539.35 771.776 465.633 770.518 413.845 805.555C414.984 750.621 379.474 696.74 328.544 676.124C277.614 655.507 214.622 669.514 177.228 709.771C171.085 645.292 101.465 598.256 37.1588 606.004C-27.1462 613.752 -80.2643 666.634 -100.538 728.15C-120.811 789.666 -112.287 857.714 -90.0173 918.536C-58.3603 1005 0.955734 1081.09 77.0767 1132.89C153.197 1184.69 245.749 1211.94 337.795 1209.66C407.76 1207.93 478.032 1188.99 536.247 1150.14C641.651 1079.8 716.902 900.949 589.912 808.561Z" fill="#F36A3A"/>
<path d="M1561.05 2114.32C1604.98 2130.2 1648.05 2151.74 1680.14 2185.68C1712.23 2219.61 1731.95 2267.71 1723.08 2313.56C1709.51 2383.7 1635.33 2426.75 1564.56 2436.51C1493.8 2446.26 1421.88 2432.28 1350.53 2435.66C1257.6 2440.06 1179.86 2476.19 1102.51 2524.16C978.446 2230.06 1295.06 2018.15 1561.05 2114.32Z" fill="#218A8D"/>
</g>
<path d="M27 33H0M2811 33H2838M27 3921H0M2811 3921H2838M33 27V0M33 3927V3954M2805 27V0M2805 3927V3954" stroke="white" stroke-width="1.25"/>
<path d="M27 33H0M2811 33H2838M27 3921H0M2811 3921H2838M33 27V0M33 3927V3954M2805 27V0M2805 3927V3954" stroke="black" stroke-width="0.25"/>
</g>
</g>
<defs>
<clipPath id="clip0_124_2022">
<rect width="2838" height="3954" fill="white"/>
</clipPath>
<clipPath id="clip1_124_2022">
<rect width="2838" height="3954" fill="white"/>
</clipPath>
<clipPath id="clip2_124_2022">
<rect width="2790" height="3906" fill="white" transform="translate(24 24)"/>
</clipPath>
<clipPath id="clip3_124_2022">
<rect width="2790" height="3906" fill="white" transform="translate(24 24)"/>
</clipPath>
</defs>
</svg>
