<svg width="2838" height="3954" viewBox="0 0 2838 3954" fill="none" xmlns="http://www.w3.org/2000/svg">
<g clip-path="url(#clip0_124_1959)">
<rect width="2838" height="3954" fill="white"/>
<g clip-path="url(#clip1_124_1959)">
<g clip-path="url(#clip2_124_1959)">
<path d="M1636.95 551.412C1461.93 645.409 1319.24 803.816 1258.88 993.084C1198.51 1182.35 1225.85 1400.91 1343.57 1560.94C1451.26 1707.32 1621.97 1795.04 1795.49 1849.04C1945.33 1895.68 2110.99 1920.14 2256.91 1862.38C2461.37 1781.45 2575.26 1560.55 2624.92 1346.34C2668.8 1157.09 2675.34 952.555 2599.27 773.798C2431.38 379.304 1971.4 371.786 1636.95 551.412Z" fill="#A7D8CB"/>
<path d="M3391.62 990.475C2648.24 951.419 2382.42 1300.07 2250.23 1578.03C2118.05 1856 1407.92 1433.08 1030.43 2260.84C652.939 3088.59 2228.26 4179.41 2228.26 4179.41L3869.92 3690.05L3391.62 990.475Z" fill="#FFE3C5"/>
<path d="M1452.44 825.063C1564.86 807.713 1669.33 720.662 1685.84 608.118C1703.82 485.583 1609.72 362.469 1489.96 330.911C1361.58 297.082 1161.68 354.158 1132.56 499.457C1093.16 696.03 1256.93 855.237 1452.44 825.063Z" fill="#218A8D"/>
<path d="M-117.827 874.105C112.991 1071.78 334.677 1092.75 436.581 1031.36C538.484 969.968 605.786 854.797 609.251 735.879C613.256 598.401 538.512 459.584 578.331 327.938C610.704 220.907 724.063 144.635 835.404 154.968C946.746 165.302 1044.13 261.134 1056.25 372.294C1072.81 524.136 951.488 650.661 877.582 784.333C788.947 944.645 765.571 1139.83 813.843 1316.54C842.248 1420.53 899.529 1522.88 994.38 1574.1C1089.23 1625.31 1225.4 1607.13 1281.46 1515.06C1325.75 1442.33 1310.86 1350.22 1313.8 1265.12C1316.73 1180.02 1357.16 1078.99 1441.77 1069.37C1508.96 1061.74 1569.08 1121.35 1585.59 1186.93C1602.11 1252.51 1585.9 1321.47 1568.03 1386.69C1550.15 1451.91 1530.35 1519.11 1539.88 1586.06C1551.89 1670.44 1609.67 1742.42 1678.21 1793.09C1746.75 1843.75 1826.35 1876.78 1903.03 1914C2184.97 2050.83 2445.55 2262.77 2563.33 2553.19C2681.12 2843.6 2620.83 3218.49 2368.29 3404.06C2147.45 3566.33 1845.83 3553.29 1575.48 3508.46C1025.85 3417.3 493.479 3223.16 14.1933 2939.11C-86.5157 2879.43 -186.729 2814.21 -260.331 2723.18C-343.933 2619.78 -387.758 2489.28 -410.349 2358.24C-487.266 1912.1 -496.339 1456.07 -157.738 1155.55L-117.827 874.105Z" fill="#EBBFBF"/>
<path d="M-4.11548 1948.53C271.006 1821.16 591.004 1793.46 883.919 1871.66C1008.11 1904.81 1129.12 1957.46 1226.72 2041.11C1324.33 2124.75 1397 2241.74 1410.89 2369.54C1558.08 2246.58 1760.07 2199.19 1950.58 2221.28C2141.09 2243.37 2320.21 2330.45 2471.25 2448.63C2700.91 2628.32 2877.82 2910.87 2835.95 3199.45C2802.47 3430.17 2629.9 3627.13 2417.62 3723.5C2205.33 3819.87 1959.44 3824.21 1732.36 3771.39C1505.29 3718.57 1294.31 3611.89 1094.04 3492.55C906.484 3380.78 724.224 3255.49 577.496 3093.81C308.83 2797.78 179.472 2404.58 57.2175 2023.96" fill="#F36A3A"/>
<path d="M3055.12 2246.67C2991.21 2147.59 2849.89 2099.64 2746.64 2156.57C2713.51 2174.84 2685.85 2201.98 2652.43 2219.73C2619.01 2237.48 2575.03 2244.07 2545.14 2220.86C2506.86 2191.13 2512.26 2133.48 2505.23 2085.52C2485.62 1951.68 2333.47 1862.63 2200.56 1887.8C2067.65 1912.97 1964.61 2030.07 1928.64 2160.47C1892.66 2290.87 1914.83 2431.32 1960.86 2558.53C2005.41 2681.65 2065.33 2816.33 2181.98 2875.8C2283.09 2927.35 2406.51 2916.4 2453.35 2909.97C2568.6 2885.09 2684.88 2859.87 2792.2 2811.02C2899.51 2762.16 2998.6 2687.12 3055.12 2583.64C3111.64 2480.16 3119.03 2345.76 3055.12 2246.67Z" fill="#3D613C"/>
<path d="M583.578 2874.63C671.117 2851.37 761.463 2826.74 832.108 2770.05C902.752 2713.36 948.647 2615.35 917.158 2530.43C897.466 2477.32 851.154 2436.76 834.585 2382.6C807.692 2294.69 865.708 2205.93 916.546 2129.33C944.3 2087.52 971.072 2044.12 984.983 1995.9C998.894 1947.68 998.696 1893.45 974.212 1849.64C949.727 1805.83 897.622 1775.94 848.583 1786.63C814.736 1794.01 786.528 1818.6 752.615 1825.67C704.696 1835.66 655.282 1807.55 625.828 1768.46C596.373 1729.36 582.791 1680.91 569.868 1633.7C556.945 1586.49 543.491 1538.03 514.228 1498.79C464.334 1431.89 373.215 1403.17 290.794 1416.27C208.372 1429.36 135.063 1479.45 80.8626 1542.91C26.6626 1606.37 -10.2574 1682.68 -41.3464 1760.13C-175.862 2095.23 -209.564 2473.45 -115.704 2822.14C-103.307 2868.19 -88.4004 2914.41 -61.4874 2953.79C4.66759 3050.57 99.4216 3045.28 188.703 2991.5C300.08 2924.41 458.563 2907.84 583.578 2874.63Z" fill="#218A8D"/>
<path d="M420.386 2766.26C599.091 2763.51 777.139 2847.67 888.441 2987.51C1008.07 3137.81 1052.13 3343.91 1195.26 3472.03C1287.27 3554.39 1409.64 3594.02 1530.62 3618.75C1651.6 3643.48 1775.61 3655.69 1893.13 3693.6C2010.64 3731.52 2124.57 3799.79 2184.78 3907.6C2244.99 4015.41 2235.7 4167.27 2140.61 4246.05C2067.78 4306.39 1965.74 4312.7 1871.22 4316.28C1464.98 4331.65 1058.75 4347.02 652.508 4362.39C488.746 4368.59 317.419 4373.3 169.756 4302.22C-45.0493 4198.82 -161.26 3952.33 -175.723 3714.37C-200.363 3308.95 -71.6613 2773.85 420.386 2766.26Z" fill="#3D613C"/>
<path d="M1778.38 2648.43C1432.86 2523.97 1050.66 2952.28 1437.77 3333.13C1301.06 3742.49 1742.52 3892.35 1977.91 3778.22C2409.29 3949.17 2583.9 3617.77 2505.5 3411.09C2790.58 3190.16 2640.92 2868.03 2441.36 2845.57C2430.67 2473.9 1956.38 2373.97 1778.38 2648.43Z" fill="#FFC159"/>
<path d="M1856.91 2791.05C1641.68 2835.69 1521.95 3194.71 1703.68 3436.53C1885.42 3678.35 2259.58 3585.7 2345.1 3364.76C2430.62 3143.83 2337.97 2691.27 1856.91 2791.05Z" fill="#F36A3A"/>
<path d="M1412.09 4063.22C1487.48 3948.25 1617.47 3881.79 1746.31 3833.83C1875.16 3785.86 2010.75 3750.28 2125.83 3675.05C2253.13 3591.82 2345.62 3466.51 2449.26 3355.21C2552.91 3243.9 2679.9 3140.29 2831.13 3124.1C3048.8 3100.8 3255.19 3282.26 3300.7 3496.4C3346.21 3710.53 3254.33 3937.42 3103.28 4095.87C2952.22 4254.32 2748.98 4353.1 2542.27 4425.17C2324.12 4501.23 2096.91 4551.22 1866.98 4573.76C1593.67 4600.56 1201.28 4384.73 1412.09 4063.22Z" fill="#218A8D"/>
<path d="M2289.25 1353.43C2354.17 1343.34 2423.66 1377.58 2455.23 1435.2C2480.55 1383.32 2539.62 1350.03 2597.11 1355.22C2654.61 1360.42 2706.75 1403.77 2722.36 1459.36C2759.07 1402.05 2846.73 1391.54 2903.1 1429.67C2959.47 1467.8 2983.7 1542.74 2973.1 1609.96C2962.49 1677.19 2921.84 1736.69 2871.81 1782.83C2800.69 1848.42 2708.71 1891.03 2612.69 1902.87C2516.67 1914.71 2417.09 1895.72 2332.17 1849.37C2267.62 1814.14 2211.05 1762.68 2175.31 1698.41C2110.6 1582.05 2126.19 1378.76 2289.25 1353.43Z" fill="#FFC159"/>
<path d="M1994.92 1738.07C2041.07 1754.75 2086.33 1777.39 2120.04 1813.05C2153.76 1848.71 2174.48 1899.24 2165.16 1947.42C2150.91 2021.12 2072.96 2066.35 1998.61 2076.6C1924.25 2086.85 1848.69 2072.16 1773.71 2075.71C1676.07 2080.34 1594.39 2118.3 1513.11 2168.71C1382.75 1859.68 1715.43 1637.02 1994.92 1738.07Z" fill="#F36A3A"/>
</g>
<path d="M1730.76 892.917C1669.56 950.193 1700.09 1116.76 1868 1177.34C2035.91 1237.92 2220.13 1155.64 2275.48 1028.74C2330.83 901.832 2280.95 781.132 2190.12 794.522C2099.29 807.912 2029.86 882.286 1957.67 874.435C1885.48 866.583 1779.97 846.86 1730.76 892.917Z" fill="white"/>
<path d="M1793.1 812.926C1790.43 831.053 1773.57 843.581 1755.44 840.908C1737.31 838.235 1724.78 821.373 1727.46 803.245C1730.13 785.118 1746.99 772.59 1765.12 775.263C1783.25 777.937 1795.77 794.799 1793.1 812.926Z" fill="#20353D"/>
<path d="M2160.24 739.625C2157.57 757.752 2140.71 770.28 2122.58 767.607C2104.45 764.934 2091.92 748.072 2094.6 729.944C2097.27 711.817 2114.13 699.289 2132.26 701.963C2150.39 704.636 2162.91 721.498 2160.24 739.625Z" fill="#20353D"/>
<path d="M1786.96 1136L1843.33 861.343L1854.74 863.673L1798.37 1138.33L1786.96 1136Z" fill="#A7D8CB"/>
<path d="M2017.16 1196.91L1958.72 870.444L1970.2 868.388L2028.64 1194.85L2017.16 1196.91Z" fill="#A7D8CB"/>
<path d="M2229.41 1093.99L2098.32 823.034L2108.82 817.953L2239.92 1088.91L2229.41 1093.99Z" fill="#A7D8CB"/>
<path d="M1797.55 1010.73C1763.7 996.091 1730.86 977.012 1699.9 953.74L1706.91 944.419C1860.33 1059.79 2092.45 1097.5 2283.89 857.672L2293 864.933C2202.4 978.426 2096.63 1039.03 1978.6 1045.04C1918.32 1048.12 1856.41 1036.16 1797.55 1010.73Z" fill="#A7D8CB"/>
<path d="M27 33H0M2811 33H2838M27 3921H0M2811 3921H2838M33 27V0M33 3927V3954M2805 27V0M2805 3927V3954" stroke="white" stroke-width="1.25"/>
<path d="M27 33H0M2811 33H2838M27 3921H0M2811 3921H2838M33 27V0M33 3927V3954M2805 27V0M2805 3927V3954" stroke="black" stroke-width="0.25"/>
</g>
</g>
<defs>
<clipPath id="clip0_124_1959">
<rect width="2838" height="3954" fill="white"/>
</clipPath>
<clipPath id="clip1_124_1959">
<rect width="2838" height="3954" fill="white"/>
</clipPath>
<clipPath id="clip2_124_1959">
<rect width="2790" height="3906" fill="white" transform="translate(24 24)"/>
</clipPath>
</defs>
</svg>
