<svg width="29" height="29" viewBox="0 0 29 29" fill="none" xmlns="http://www.w3.org/2000/svg">
<path d="M11.1467 2.33295C11.8999 -0.704338 16.2172 -0.704342 16.9704 2.33294L18.2866 7.64107C18.5543 8.72044 19.397 9.5632 20.4764 9.83085L25.7845 11.1471C28.8218 11.9002 28.8218 16.2176 25.7845 16.9707L20.4764 18.287C19.397 18.5546 18.5543 19.3974 18.2866 20.4767L16.9704 25.7849C16.2172 28.8222 11.8999 28.8222 11.1467 25.7849L9.83049 20.4767C9.56284 19.3974 8.72008 18.5546 7.64071 18.287L2.33258 16.9707C-0.704704 16.2176 -0.704708 11.9002 2.33258 11.1471L7.64071 9.83085C8.72008 9.5632 9.56284 8.72044 9.83049 7.64107L11.1467 2.33295Z" fill="white"/>
</svg>
