<svg width="179" height="189" viewBox="0 0 179 189" fill="none" xmlns="http://www.w3.org/2000/svg">
<path d="M78.5987 154.641L78.5891 154.305C78.4585 154.318 78.3247 154.324 78.1973 154.352C78.2315 154.486 78.4776 154.57 78.5987 154.641Z" fill="white"/>
<path d="M80.2393 154.353C80.1087 154.325 79.9781 154.322 79.8475 154.306L79.8379 154.639C79.9598 154.57 80.2051 154.486 80.2393 154.353Z" fill="white"/>
<path d="M149.507 80.7687C149.495 80.0558 149.407 79.3222 149.332 78.6094C149.125 76.5807 148.729 74.5553 148.278 72.5642C147.78 70.3707 147.068 68.2457 146.321 66.127C146.004 65.2342 145.712 64.3382 145.266 63.4979C144.834 62.6799 144.401 61.8651 144.044 61.0153C143.701 60.2005 143.197 59.416 142.668 58.7071C142.155 58.0189 141.689 57.2942 141.169 56.6132C140.605 55.8757 139.877 55.2504 139.28 54.5344C138.919 54.1051 138.571 53.636 138.139 53.272C137.883 53.0601 137.591 52.892 137.329 52.6865C135.737 51.4424 134.041 50.3593 132.262 49.4043C131.62 49.0586 131.026 48.6922 130.354 48.3991C129.844 48.1817 129.321 47.9977 128.805 47.7899C127.321 47.1957 125.871 46.5266 124.377 45.9571C123.662 45.6832 122.9 45.543 122.165 45.3287C121.347 45.089 120.541 44.815 119.698 44.6725C118.096 44.3985 116.512 44.0902 114.891 43.9596C113.324 43.8353 111.777 43.8226 110.2 43.8226C108.765 43.8226 107.396 43.8792 105.993 44.1994C105.66 44.2774 105.346 44.3738 105.026 44.467C104.982 44.4765 104.945 44.4885 104.904 44.4885C104.702 44.5044 104.515 44.5784 104.313 44.5912C104.132 44.6039 103.977 44.7003 103.799 44.7346C103.638 44.7688 103.489 44.8214 103.33 44.862C102.966 44.9584 102.593 45.0483 102.241 45.1575C101.924 45.257 101.584 45.3503 101.261 45.4251C101.093 45.4657 100.925 45.5494 100.763 45.6059C100.667 45.637 100.592 45.6832 100.496 45.7238C100.368 45.7764 100.215 45.7955 100.082 45.8361C99.8919 45.8982 99.7206 45.985 99.5311 46.044C99.2826 46.1188 99.0835 46.2367 98.8501 46.3394C98.6287 46.439 98.408 46.5418 98.1874 46.6413C98.0536 46.7034 97.9318 46.7911 97.7948 46.8532C97.6554 46.9185 97.5056 46.9742 97.375 47.0674C97.0142 47.3231 96.616 47.5342 96.2488 47.7866C95.7948 48.0949 95.4149 48.5051 94.9641 48.8133C94.4599 49.1558 94.0832 49.6313 93.626 50.0231C93.4333 50.188 93.2716 50.3784 93.0812 50.5464C92.8542 50.7456 92.6121 50.9447 92.4002 51.1589C91.9271 51.6384 91.4357 52.1266 90.9036 52.5408C90.7579 52.6523 90.6328 52.7797 90.499 52.9103C90.3931 53.0099 90.2688 53.0752 90.1542 53.1628C90.0387 53.2465 89.908 53.3245 89.7933 53.4145C89.6715 53.5109 89.5751 53.62 89.4541 53.7132C89.4445 53.7196 89.4318 53.7228 89.423 53.726C89.196 53.8407 88.9435 53.8972 88.7261 54.0342C88.5612 54.1361 88.4115 54.2676 88.2498 54.3671C88.0411 54.4946 87.7926 54.5344 87.5839 54.6626C87.4063 54.7677 87.2574 54.8864 87.0614 54.9581C86.7006 55.0951 86.355 55.2656 85.9846 55.381C85.8508 55.4217 85.7297 55.4901 85.5991 55.5395C85.4589 55.5985 85.3036 55.6049 85.1602 55.655C85.0392 55.6925 84.9301 55.7578 84.8026 55.7761C84.7126 55.7888 84.6186 55.7761 84.5254 55.7824C84.3176 55.7976 84.1272 55.8478 83.9281 55.9067C83.6979 55.9752 83.4558 55.9816 83.2248 56.0469C83.0663 56.0875 82.9205 56.1528 82.7557 56.1775C82.5685 56.2054 82.3789 56.2118 82.1957 56.2524C81.9966 56.2954 81.878 56.2675 81.6788 56.2492C81.4829 56.2269 81.2989 56.3113 81.0998 56.2802C80.876 56.246 80.6554 56.1903 80.4252 56.1839C80.0708 56.1775 79.7315 56.1026 79.3739 56.0875C79.1556 56.0811 78.9414 56.0031 78.7231 55.9752C78.5455 55.9537 78.3559 55.9314 78.1815 55.8788C77.8709 55.7793 77.5499 55.7044 77.2329 55.6176C77.0091 55.5587 76.8004 55.4559 76.5766 55.3962C76.3958 55.35 76.2341 55.303 76.0565 55.2409C75.9139 55.1883 75.761 55.154 75.6184 55.0983C75.5157 55.0576 75.4162 54.9955 75.3102 54.9645C74.4484 54.7152 73.6336 54.3639 72.7997 54.0342C72.3202 53.8438 71.8846 53.5515 71.4059 53.3683C70.9734 53.2035 70.5807 52.9199 70.1578 52.7304C69.6942 52.5249 69.2617 52.2477 68.795 52.0517C68.3346 51.859 67.93 51.5978 67.5007 51.3485C67.3606 51.268 67.1901 51.2274 67.0627 51.131C66.9193 51.0283 66.7975 50.9383 66.6485 50.8419C66.2567 50.5862 65.8489 50.3625 65.457 50.1044C65.2419 49.961 65.0277 49.8336 64.8007 49.7125C64.5889 49.6034 64.4176 49.4449 64.2185 49.3238C64.0194 49.202 63.8266 49.0682 63.6275 48.9439C63.5749 48.9033 63.5311 48.8539 63.4785 48.8133C63.0237 48.5051 62.6446 48.0949 62.1898 47.7866C61.8195 47.5342 61.4244 47.3231 61.0636 47.0674C60.933 46.9742 60.7841 46.9185 60.6407 46.8532C60.5069 46.7911 60.3858 46.7034 60.252 46.6413C60.0306 46.5418 59.81 46.439 59.5893 46.3394C59.356 46.2367 59.1537 46.1188 58.9075 46.044C58.718 45.985 58.5436 45.8982 58.3572 45.8361C58.2202 45.7955 58.0705 45.7764 57.9399 45.7238C57.8467 45.6832 57.7718 45.637 57.6754 45.6059C57.5137 45.5494 57.3457 45.4657 57.1776 45.4251C56.8574 45.3503 56.5149 45.257 56.1979 45.1575C55.8459 45.0483 55.4731 44.9584 55.1092 44.862C54.9499 44.8214 54.8009 44.7688 54.6393 44.7346C54.4616 44.7003 54.3031 44.6039 54.1255 44.5912C53.9232 44.5784 53.7368 44.5044 53.5345 44.4885C53.4907 44.4885 53.4541 44.4765 53.4135 44.467C53.0925 44.3738 52.7787 44.2774 52.4457 44.1994C51.0423 43.8792 49.6732 43.8226 48.2395 43.8226C46.6617 43.8226 45.1158 43.8353 43.5475 43.9596C41.9267 44.0902 40.3433 44.3985 38.7408 44.6725C37.8973 44.815 37.0921 45.089 36.2733 45.3287C35.5357 45.543 34.7735 45.6832 34.0583 45.9571C32.5649 46.5266 31.1209 47.1957 29.6338 47.7899C29.1177 47.9977 28.5952 48.1817 28.0847 48.3991C27.4125 48.6922 26.8183 49.0586 26.1771 49.4043C24.3978 50.3593 22.6989 51.4424 21.1091 52.6865C20.8479 52.892 20.5556 53.0601 20.3007 53.272C19.865 53.636 19.5194 54.1051 19.1586 54.5344C18.558 55.2504 17.8332 55.8757 17.2701 56.6132C16.7508 57.2942 16.2841 58.0189 15.7704 58.7071C15.2415 59.416 14.7373 60.2005 14.3948 61.0153C14.0372 61.8651 13.6015 62.6799 13.1722 63.4979C12.7278 64.3382 12.4323 65.2342 12.1177 66.127C11.3714 68.2457 10.6585 70.3707 10.1607 72.5642C9.70994 74.5553 9.31493 76.5807 9.10307 78.6094C9.03138 79.3222 8.94455 80.0558 8.9318 80.7687C8.91667 81.6647 8.81393 82.5448 8.79481 83.4384C8.77331 84.2405 8.80434 85.0497 8.79797 85.8557C8.78841 86.7637 8.95094 87.6533 8.94138 88.5653C8.92226 90.5254 9.13731 92.4951 9.38342 94.4393C9.65024 96.5953 9.99907 98.7984 10.7119 100.858C11.1189 102.037 11.3523 103.266 11.7728 104.439C12.23 105.717 12.6967 107.018 13.2097 108.275C13.5362 109.081 13.9814 109.809 14.2738 110.633C14.5071 111.299 14.9428 111.869 15.2662 112.497C15.6581 113.259 16.0005 114.043 16.4673 114.768C16.9778 115.567 17.3195 116.445 17.7958 117.266C19.4787 120.178 21.0096 123.156 22.8948 125.947C23.7662 127.238 24.5252 128.638 25.3217 129.976C26.0593 131.224 26.6694 132.602 27.512 133.784C28.6478 135.374 29.5813 137.212 30.3124 139.014C30.4924 139.456 30.6549 139.866 30.8317 140.271C30.9161 140.473 30.9377 140.703 30.9934 140.93C31.0245 141.049 31.124 141.369 31.2459 141.438C31.2236 141.415 31.2236 141.438 31.2363 141.506C31.2642 141.513 31.2579 141.621 31.2865 141.627C31.2953 141.748 31.3765 141.87 31.4172 141.976C31.5565 142.34 31.7214 142.763 31.7963 143.145C31.9739 144.067 32.2757 144.963 32.4096 145.896C32.6119 147.293 32.8668 148.686 33.0412 150.087C33.0786 150.37 33.0252 150.659 33.0595 150.942C33.1001 151.294 33.1558 151.611 33.1527 151.966C33.1495 152.349 33.175 152.703 33.2307 153.08C33.3024 153.53 33.2554 154.007 33.2554 154.464V159.106C33.2554 161.393 33.1718 163.698 33.2491 165.985C33.2833 166.943 33.4203 167.901 33.4609 168.86C33.5135 170.092 33.5947 171.352 33.7907 172.572C33.9898 173.81 34.0925 175.07 34.388 176.29C34.5465 176.949 34.5377 177.599 34.7926 178.244C35.0698 178.934 35.2466 179.687 35.4617 180.396C35.8129 181.547 36.2048 182.683 36.7464 183.762C37.1072 184.488 37.546 185.237 38.2055 185.735C39.2138 186.494 40.2835 187.145 41.4504 187.617C41.9609 187.823 42.4961 187.922 43.0314 188.012C43.3452 188.066 43.6032 188.072 43.921 188.084C44.1233 188.093 44.2755 188.14 44.465 188.172C44.7637 188.224 45.0003 188.162 45.2902 188.112C45.7474 188.038 46.1703 188.093 46.6275 187.941C46.9827 187.823 47.3308 187.667 47.6765 187.527C48.0492 187.375 48.2738 187.222 48.5757 186.98C48.7931 186.806 49.0297 186.734 49.2407 186.528C49.6175 186.152 49.9974 185.732 50.2929 185.29C50.6194 184.795 50.8154 184.208 51.0328 183.657C51.5155 182.428 51.7425 181.087 52.0571 179.805C52.2618 178.956 52.5357 178.103 52.8065 177.269C52.9061 176.952 52.9874 176.616 53.0463 176.29C53.1116 175.931 53.2948 175.624 53.3569 175.272C53.5194 174.389 53.9145 173.505 54.2036 172.644C54.5771 171.523 55.0685 170.416 55.5504 169.333C56.2537 167.759 57.0908 166.274 58.1421 164.914C58.3787 164.616 58.5627 164.305 58.7554 163.979C59.0605 163.459 59.5017 163.023 59.8753 162.551C60.2297 162.099 60.5316 161.614 60.9457 161.213C61.4061 160.767 61.8633 160.298 62.3428 159.874C62.6972 159.557 63.0397 159.218 63.4156 158.923C63.7517 158.661 64.1126 158.472 64.4646 158.242C64.8812 157.971 65.2363 157.632 65.684 157.405C66.1945 157.143 66.6923 156.866 67.1989 156.608C68.3132 156.042 69.5015 155.603 70.6994 155.26C71.3215 155.084 71.9316 154.797 72.5664 154.654C72.9208 154.576 73.3127 154.576 73.6766 154.511C74.2182 154.411 74.7439 154.467 75.2855 154.411C75.9761 154.343 76.6451 154.33 77.3357 154.33C77.7522 154.333 78.1727 154.302 78.5893 154.284V154.302C78.798 154.281 79.0098 154.296 79.2177 154.293C79.4296 154.296 79.6407 154.281 79.8493 154.302V154.284C80.2667 154.302 80.6864 154.333 81.103 154.33C81.7943 154.33 82.4626 154.343 83.1508 154.411C83.6947 154.467 84.2204 154.411 84.762 154.511C85.126 154.576 85.5179 154.576 85.8731 154.654C86.5079 154.797 87.114 155.084 87.7392 155.26C88.9372 155.603 90.1263 156.042 91.2398 156.608C91.7471 156.866 92.2449 157.143 92.7515 157.405C93.2031 157.632 93.5575 157.971 93.9749 158.242C94.3261 158.472 94.6901 158.661 95.0198 158.923C95.3966 159.218 95.7383 159.557 96.0967 159.874C96.5754 160.298 97.0325 160.767 97.4905 161.213C97.9071 161.614 98.2089 162.099 98.5633 162.551C98.9369 163.023 99.379 163.459 99.684 163.979C99.8768 164.305 100.06 164.616 100.297 164.914C101.348 166.274 102.185 167.759 102.888 169.333C103.37 170.416 103.859 171.523 104.235 172.644C104.525 173.505 104.92 174.389 105.079 175.272C105.144 175.624 105.327 175.931 105.392 176.29C105.452 176.616 105.533 176.952 105.632 177.269C105.9 178.103 106.174 178.956 106.382 179.805C106.693 181.087 106.923 182.428 107.406 183.657C107.623 184.208 107.816 184.795 108.147 185.29C108.439 185.732 108.821 186.152 109.198 186.528C109.407 186.734 109.649 186.806 109.864 186.98C110.166 187.222 110.389 187.375 110.763 187.527C111.108 187.667 111.457 187.823 111.808 187.941C112.268 188.093 112.692 188.038 113.149 188.112C113.435 188.162 113.675 188.224 113.974 188.172C114.163 188.14 114.316 188.093 114.515 188.084C114.832 188.072 115.093 188.066 115.405 188.012C115.943 187.922 116.475 187.823 116.985 187.617C118.155 187.145 119.226 186.494 120.233 185.735C120.893 185.237 121.331 184.488 121.695 183.762C122.234 182.683 122.626 181.547 122.978 180.396C123.192 179.687 123.37 178.934 123.644 178.244C123.902 177.599 123.892 176.949 124.051 176.29C124.346 175.07 124.446 173.81 124.645 172.572C124.844 171.352 124.925 170.092 124.978 168.86C125.018 167.901 125.155 166.943 125.186 165.985C125.268 163.698 125.183 161.393 125.183 159.106V154.464C125.183 154.007 125.137 153.53 125.206 153.08C125.264 152.703 125.289 152.349 125.286 151.966C125.283 151.611 125.339 151.294 125.379 150.942C125.413 150.659 125.361 150.37 125.395 150.087C125.572 148.686 125.828 147.293 126.027 145.896C126.161 144.963 126.466 144.067 126.642 143.145C126.714 142.763 126.882 142.34 127.022 141.976C127.063 141.87 127.143 141.748 127.153 141.627C127.181 141.621 127.174 141.513 127.202 141.506C127.215 141.438 127.212 141.415 127.194 141.438C127.315 141.369 127.414 141.049 127.445 140.93C127.498 140.703 127.52 140.473 127.607 140.271C127.785 139.866 127.946 139.456 128.124 139.014C128.857 137.212 129.791 135.374 130.923 133.784C131.77 132.602 132.376 131.224 133.117 129.976C133.91 128.638 134.672 127.238 135.544 125.947C137.429 123.156 138.96 120.178 140.643 117.266C141.116 116.445 141.458 115.567 141.971 114.768C142.435 114.043 142.781 113.259 143.176 112.497C143.496 111.869 143.928 111.299 144.165 110.633C144.457 109.809 144.902 109.081 145.229 108.275C145.743 107.018 146.206 105.717 146.667 104.439C147.086 103.266 147.32 102.037 147.728 100.858C148.44 98.7984 148.785 96.5953 149.056 94.4393C149.299 92.4951 149.516 90.5254 149.498 88.5653C149.489 87.6533 149.65 86.7637 149.641 85.8557C149.634 85.0497 149.665 84.2405 149.644 83.4384C149.622 82.5448 149.523 81.6647 149.507 80.7687Z" fill="white"/>
<path d="M99.4782 69.7985C99.4527 69.8009 99.428 69.8041 99.4065 69.8041C99.3786 69.8041 99.3659 69.7922 99.3476 69.7858C99.3221 69.7826 99.2973 69.7826 99.2663 69.7858C99.1731 69.7954 99.0672 69.8136 98.9772 69.8351C98.8872 69.8543 98.8059 69.8885 98.7191 69.9228C98.6196 69.9602 98.4945 69.9849 98.4013 70.0438C98.2866 70.1123 98.1903 70.2278 98.0907 70.321C97.9935 70.411 97.8916 70.4923 97.7944 70.5823C97.7044 70.6691 97.6263 70.7718 97.5427 70.8682C97.4742 70.9462 97.4089 71.0211 97.3564 71.1143C97.291 71.2234 97.2409 71.3413 97.1724 71.4504C97.0975 71.5715 97.0234 71.6901 96.9613 71.8176C96.8299 72.0693 96.7215 72.3496 96.6499 72.6324C96.5782 72.9311 96.4977 73.2146 96.4571 73.522C96.4165 73.8239 96.3544 74.1258 96.3695 74.434C96.3886 74.7821 96.4229 75.1031 96.5033 75.436C96.5407 75.5881 96.5686 75.7434 96.6092 75.8931C96.6467 76.0365 96.6968 76.1759 96.7398 76.3192C96.7773 76.4467 96.8331 76.5686 96.8833 76.6928C96.9454 76.8513 96.9955 77.0098 97.076 77.1627C97.2098 77.3993 97.3308 77.6478 97.4615 77.8875C97.5459 78.0428 97.655 78.1735 97.7482 78.3232C97.8661 78.5159 97.9816 78.7214 98.1433 78.8608C98.2364 78.942 98.3297 79.0201 98.4205 79.1069C98.5415 79.2128 98.6817 79.2686 98.8091 79.353C99.0361 79.4988 99.2726 79.6207 99.5212 79.686C99.7545 79.7481 99.9847 79.8102 100.224 79.8413C100.461 79.8755 100.691 79.8755 100.925 79.8628C101.114 79.854 101.301 79.8102 101.481 79.7513C101.569 79.7202 101.656 79.7106 101.74 79.6573C101.864 79.5832 101.998 79.5394 102.122 79.4613C102.334 79.3307 102.53 79.1786 102.729 79.0201C102.819 78.9484 102.906 78.864 102.991 78.7804C103.103 78.6617 103.193 78.5128 103.296 78.3853C103.488 78.1551 103.622 77.8628 103.759 77.5793C103.902 77.287 104.008 76.9668 104.061 76.6275C104.11 76.3288 104.142 76.0453 104.145 75.7378C104.145 75.4296 104.11 75.1182 104.073 74.8131C104.039 74.524 104.02 74.2349 103.952 73.9513C103.883 73.6813 103.833 73.3794 103.731 73.1206C103.681 72.9932 103.632 72.8657 103.582 72.7351C103.535 72.6204 103.467 72.5328 103.401 72.4333C103.339 72.3369 103.286 72.2341 103.234 72.1282C103.196 72.0597 103.162 71.9793 103.115 71.9203C103.074 71.867 103.031 71.8264 102.991 71.777C102.916 71.6806 102.86 71.5651 102.788 71.4624C102.726 71.3724 102.658 71.2943 102.58 71.2202C102.502 71.1422 102.439 71.049 102.369 70.9646C102.281 70.865 102.173 70.7965 102.075 70.7065C101.992 70.6292 101.911 70.548 101.824 70.4731C101.74 70.3959 101.649 70.3521 101.55 70.2987C101.463 70.2493 101.382 70.1808 101.292 70.1338C101.22 70.0996 101.143 70.0781 101.068 70.047C100.9 69.9785 100.725 69.9443 100.557 69.8949C100.477 69.8726 100.399 69.8758 100.318 69.8694C100.252 69.8606 100.193 69.8296 100.128 69.82C99.506 69.7268 98.8027 69.7268 98.2866 70.1992" fill="#24373F"/>
<path d="M61.0924 70.091C61.0709 70.0847 61.0462 70.0814 61.0239 70.0719C60.996 70.0655 60.9897 70.0504 60.9746 70.0408C60.9499 70.0257 60.9244 70.0226 60.8965 70.0162C60.8065 69.9947 60.7005 69.9819 60.6074 69.9692C60.5173 69.9636 60.4266 69.9691 60.3366 69.9723C60.2275 69.9755 60.1032 69.9636 59.9941 69.9851C59.8667 70.013 59.7424 70.0878 59.6182 70.1404C59.4995 70.1938 59.3784 70.2336 59.2637 70.287C59.1482 70.3363 59.0455 70.408 58.9395 70.467C58.8495 70.5171 58.7659 70.5665 58.6847 70.6318C58.5947 70.7099 58.5102 70.8031 58.417 70.8812C58.3079 70.968 58.202 71.0524 58.1032 71.1488C57.9041 71.3351 57.7202 71.5534 57.5712 71.7899C57.4119 72.032 57.2534 72.2654 57.126 72.5298C56.9985 72.7942 56.8488 73.0436 56.7747 73.3295C56.6871 73.6473 56.6282 73.946 56.6067 74.2725C56.5971 74.4215 56.578 74.568 56.5693 74.7137C56.5661 74.8539 56.5724 74.9973 56.5724 75.1375C56.5724 75.2681 56.5876 75.3891 56.5971 75.5166C56.6122 75.6815 56.6123 75.84 56.6465 75.9993C56.7031 76.2541 56.7461 76.5154 56.7994 76.7703C56.8337 76.9383 56.899 77.0881 56.942 77.2529C57.0017 77.4616 57.0479 77.6791 57.1634 77.8567C57.2287 77.9562 57.2972 78.0558 57.3562 78.1617C57.4374 78.2947 57.5553 78.3855 57.6548 78.5002C57.8261 78.7025 58.0124 78.8833 58.2339 79.0171C58.4386 79.1445 58.6409 79.272 58.8559 79.3715C59.0734 79.4711 59.2916 79.5428 59.5218 79.6017C59.7018 79.6487 59.8953 79.6702 60.0849 79.6702C60.1749 79.6702 60.2617 79.683 60.3557 79.6638C60.4951 79.6328 60.6385 79.6328 60.7755 79.6017C61.0184 79.5492 61.2486 79.4711 61.4851 79.3906C61.5934 79.3532 61.7025 79.3031 61.8053 79.2505C61.9455 79.1788 62.0761 79.0697 62.2131 78.986C62.4648 78.8363 62.6798 78.6157 62.8877 78.4038C63.1123 78.18 63.3082 77.9251 63.4571 77.6352C63.591 77.3804 63.7065 77.1342 63.7965 76.8579C63.8865 76.5807 63.9454 76.2884 64.002 76.0056C64.0545 75.7316 64.123 75.464 64.1389 75.1901C64.1541 74.9224 64.1947 74.6397 64.1732 74.3753C64.1605 74.2446 64.1509 74.1132 64.1422 73.9802C64.1326 73.8615 64.0952 73.7652 64.0609 73.6529C64.0267 73.5501 64.0083 73.4386 63.986 73.3295C63.9741 73.2546 63.9614 73.1742 63.9367 73.1025C63.9176 73.0468 63.8833 72.9934 63.8618 72.9376C63.818 72.8285 63.7965 72.7074 63.759 72.5951C63.728 72.4892 63.681 72.4024 63.6316 72.3124C63.5814 72.2192 63.5504 72.1133 63.5074 72.0169C63.454 71.9014 63.3703 71.805 63.305 71.6991C63.2485 71.6027 63.1928 71.5032 63.1338 71.41C63.0749 71.3136 63 71.2451 62.9219 71.167C62.8534 71.0985 62.7977 71.0117 62.726 70.9432C62.6639 70.8907 62.5986 70.8469 62.5365 70.7943C62.3963 70.682 62.2409 70.5976 62.0944 70.5044C62.0259 70.4582 61.9486 70.4391 61.8738 70.408C61.8148 70.3801 61.7679 70.3332 61.7089 70.3053C61.1426 70.0321 60.4735 69.8202 59.8419 70.091" fill="#24373F"/>
<path d="M64.4545 83.2364C64.4545 83.6219 64.433 83.7461 64.4577 83.8648C65.0368 86.6676 66.1685 89.1725 68.3533 91.1135C68.7515 91.4712 68.8383 91.1852 68.8853 90.8523C69.3576 87.3056 69.8403 83.7653 70.2728 80.2154C70.3381 79.6834 69.9581 79.3441 69.3608 79.2907C68.3373 79.2039 67.407 79.5615 66.5954 80.0537C65.3322 80.8096 64.6783 82.0449 64.4545 83.2364ZM80.2128 88.2359C80.247 88.2359 80.2845 88.2359 80.3187 88.2327C80.3187 86.8237 80.3124 85.414 80.3251 84.0042C80.3283 83.547 80.1164 83.3447 79.6744 83.3105C77.9819 83.1767 76.3149 82.9067 74.7562 82.197C73.7542 81.743 72.7865 81.2197 71.8004 80.7347C71.1218 80.4018 71.0127 80.4145 70.8885 81.1736C70.6463 82.6701 70.4838 84.1787 70.2943 85.6848C70.092 87.3056 69.9335 88.936 69.6842 90.5504C69.454 92.0319 69.6531 92.5384 71.0533 93.1079C72.1054 93.5372 73.2126 93.8638 74.2615 94.2684C76.0687 94.9717 77.8768 94.6666 79.6903 94.7383C79.8799 94.7478 80.1849 94.4365 80.2694 94.2095C80.4151 93.8264 80.4932 93.3915 80.4772 92.9837C80.4151 91.4003 80.3028 89.8193 80.2128 88.2359ZM88.0748 83.3639C87.8263 82.9091 87.5556 82.4678 87.3317 82.0011C87.2386 81.802 87.2696 81.4754 86.9271 81.7335C85.2936 82.9497 83.4234 83.3447 81.4386 83.3105C80.7608 83.2985 80.611 83.5972 80.6517 84.1978C80.8229 86.6868 80.9599 89.1725 81.1311 91.6615C81.1837 92.4763 81.3327 93.2855 81.3796 94.1003C81.4107 94.7104 81.7341 94.7885 82.2263 94.72C82.4063 94.6945 82.6022 94.751 82.7735 94.7104C84.9574 94.1999 87.0888 93.5253 89.1174 92.5448C89.5499 92.3361 89.5308 92.0343 89.5499 91.6615C89.6367 89.8631 88.8498 88.2391 88.4858 86.5338C88.2524 85.4578 88.0063 84.4057 88.0255 83.3017C89.0489 84.5522 89.397 86.0894 89.8486 87.5859C90.1441 88.572 90.4212 89.5644 90.7597 90.5353C90.8999 90.9367 91.2233 91.0889 91.5785 90.6938C92.3901 89.7819 93.1803 88.8547 94.011 87.9619C94.8704 87.0348 95.3084 85.9022 95.6445 84.7298C96.0364 83.3511 95.8285 81.9047 94.9014 80.9242C92.8537 78.7618 90.3679 78.5572 87.9602 80.769C87.7642 80.9466 87.7825 81.4284 87.8104 81.7613C87.851 82.2998 87.9817 82.8286 88.0748 83.3639ZM82.525 95.4822C81.9961 95.5969 81.4665 95.8088 80.9376 95.8151C78.0878 95.855 75.2317 95.7339 72.5284 94.7662C70.6177 94.082 69.047 92.7814 67.5225 91.456C65.8109 89.9658 63.7735 86.6119 63.5178 84.4709C63.1634 81.5096 64.8313 79.2349 67.7432 78.4576C69.8124 77.9064 71.3679 78.781 72.6742 79.9852C74.0154 81.2261 75.5709 81.8824 77.2172 82.0879C79.8082 82.4144 82.4748 82.7075 84.9885 81.528C85.4712 81.3041 85.9562 81.0549 86.3951 80.753C87.3062 80.1342 88.1433 79.403 89.0832 78.8399C90.2564 78.1398 91.5626 77.9375 92.845 78.5261C94.6585 79.3568 96.4227 80.4264 96.6561 82.592C96.8488 84.3714 96.7397 86.2447 95.5235 87.7938C93.6629 90.1649 91.5626 92.3019 88.8808 93.7052C87.2258 94.5734 85.5054 95.4169 83.5732 95.569C83.2339 95.5969 82.8914 95.6343 82.5529 95.6654C82.5433 95.6064 82.5337 95.5443 82.525 95.4822Z" fill="#24373F"/>
<path d="M23.2465 120.023C22.4532 120.253 21.6878 120.654 20.9781 121.065C20.1354 121.551 19.2856 122.014 18.4302 122.478C17.668 122.889 17.0116 123.455 16.2582 123.881C14.9766 124.612 13.7788 125.449 12.5626 126.28C12.099 126.597 11.6068 126.846 11.1687 127.201C10.5061 127.733 9.78682 128.175 9.09309 128.66C7.04614 130.091 4.98965 131.588 3.23501 133.367C2.84872 133.759 2.47274 134.023 2.1645 134.484C1.89051 134.888 1.61732 135.271 1.36802 135.691C0.777037 136.693 0.204388 137.795 0.15182 138.983C0.120758 139.711 0.60263 140.442 0.941929 141.067C1.20955 141.571 1.41184 142.088 1.78459 142.526C1.99645 142.778 2.20193 142.949 2.46318 143.137C2.86779 143.432 3.19116 143.693 3.55834 144.033C4.20826 144.627 5.02387 145.028 5.75823 145.504C6.40178 145.924 6.96808 146.306 7.66819 146.624C8.34041 146.925 9.00306 147.23 9.62511 147.625C10.0082 147.868 10.3412 148.083 10.7856 148.189C11.3113 148.31 11.825 148.373 12.3228 148.603C13.0603 148.945 13.7294 149.287 14.5227 149.474C15.1758 149.626 15.7947 149.835 16.4143 150.083C17.2012 150.398 17.9388 150.612 18.7599 150.806C19.3979 150.952 20.0168 151.185 20.6611 151.297C21.4138 151.421 22.0454 151.723 22.8204 151.727C23.1748 151.73 23.2337 151.583 23.4233 151.297C23.8192 150.697 23.9466 150.068 24.0923 149.371C24.2851 148.432 24.4253 147.467 24.6308 146.537C24.6682 146.372 24.7614 146.064 24.6618 145.896C24.6029 145.796 24.4476 145.719 24.3727 145.634C24.1051 145.348 23.8558 145.097 23.5539 144.847C23.2927 144.635 22.9167 144.424 22.6021 144.312C22.0239 144.104 21.4512 143.818 20.9096 143.516C20.5831 143.339 20.2629 143.254 19.9044 143.137C19.6217 143.04 19.3573 142.894 19.0682 142.822C18.7161 142.738 18.3896 142.716 18.063 142.548C17.9045 142.468 17.7643 142.358 17.6058 142.283C17.4099 142.19 17.1885 142.197 17.0021 142.088C16.7839 141.96 16.6166 141.774 16.3737 141.668C16.0901 141.547 15.7572 141.552 15.4991 141.4C15.3159 141.291 15.2252 141.133 15.0173 141.046C14.8588 140.981 14.6748 140.984 14.5131 140.93C14.1555 140.818 13.8815 140.491 13.5518 140.311C13.2252 140.134 12.8795 140.019 12.6366 139.726C12.4693 139.53 12.2822 139.322 12.1333 139.114C11.9063 138.799 11.7222 138.108 11.7469 137.72C11.7748 137.349 12.0424 136.904 12.2607 136.615C12.5124 136.285 12.8206 135.959 13.0882 135.641C13.3431 135.33 13.6011 135.103 13.9468 134.907C14.2925 134.717 14.588 134.456 14.936 134.279C15.4187 134.036 15.8886 133.775 16.3769 133.535C16.5824 133.432 16.7528 133.33 16.983 133.28C17.214 133.23 17.3844 133.236 17.6209 133.143C17.8734 133.044 18.1036 132.876 18.3489 132.763C18.6357 132.633 18.9527 132.549 19.245 132.437C19.6966 132.259 20.1537 132.104 20.6077 131.921C21.2457 131.668 21.8805 131.385 22.5304 131.162C23.0752 130.971 23.5571 130.788 24.0581 130.493C24.5527 130.203 25.0728 129.933 25.6136 129.755C26.0931 129.596 26.4882 129.272 26.939 129.048C27.3563 128.843 27.7793 128.657 28.1871 128.43C28.7438 128.125 28.7286 127.294 28.5789 126.755C28.414 126.149 28.5104 125.62 28.2245 125.048C27.9975 124.603 27.8326 124.121 27.5339 123.716C27.2353 123.305 26.9142 122.944 26.6562 122.502C26.4666 122.185 26.1831 122.033 25.9593 121.769C25.8908 121.691 25.8661 121.57 25.7976 121.488C25.6359 121.302 25.393 121.149 25.2185 120.969C25.1102 120.857 25.0043 120.767 24.8856 120.667C24.6993 120.508 24.5687 120.297 24.3791 120.144C24.2294 120.02 22.7574 119.246 22.7328 119.799C22.767 119.802 22.8013 119.812 23.2465 120.023Z" fill="white"/>
<path d="M26.5287 130.147C26.4602 130.134 26.3917 130.168 26.3264 130.181C26.1894 130.206 26.0524 130.212 25.9123 130.249C25.7044 130.302 25.5053 130.333 25.2998 130.411C25.1253 130.483 24.9604 130.566 24.7804 130.629C24.606 130.685 24.4563 130.775 24.2882 130.84C24.1425 130.896 23.9927 130.946 23.847 131.008C23.6694 131.083 23.5013 131.173 23.3213 131.242C23.2584 131.263 23.1994 131.286 23.1341 131.307C23.025 131.344 22.9318 131.41 22.8259 131.45C22.7327 131.485 22.6395 131.485 22.5495 131.522C22.4619 131.556 22.3878 131.591 22.297 131.619C22.0669 131.687 21.8526 131.783 21.6288 131.864C21.4416 131.929 21.2799 132.017 21.084 132.054C20.9191 132.082 20.7694 132.141 20.6109 132.2C20.4054 132.275 20.1975 132.356 19.992 132.43C19.7738 132.511 19.5436 132.58 19.3389 132.683C19.2362 132.735 19.1422 132.8 19.0339 132.844C18.928 132.89 18.8069 132.91 18.6978 132.95C18.4891 133.021 18.3027 133.168 18.0845 133.22C17.9355 133.251 17.8081 133.339 17.6679 133.398C17.5437 133.448 17.4313 133.497 17.3135 133.556C17.1574 133.638 17.0021 133.703 16.8436 133.768C16.6875 133.83 16.5568 133.939 16.4047 134.005C16.2613 134.064 16.1402 134.145 16.0032 134.21C15.8511 134.281 15.7046 134.347 15.5557 134.428C15.3876 134.518 15.2346 134.636 15.0634 134.714C14.9081 134.788 14.7337 134.847 14.5879 134.945C14.4629 135.025 14.3386 135.121 14.2207 135.211C14.1212 135.286 14.0089 135.345 13.9093 135.42C13.8193 135.485 13.7317 135.563 13.6481 135.638C13.5453 135.728 13.4084 135.821 13.3215 135.927C13.3 135.955 13.2968 135.986 13.2745 136.011C13.2435 136.048 13.1973 136.071 13.163 136.105C13.1288 136.139 13.1192 136.176 13.0882 136.21C13.0324 136.275 12.9695 136.316 12.9074 136.378C12.8269 136.456 12.7704 136.549 12.6931 136.631C12.5904 136.73 12.4749 136.858 12.3976 136.982C12.3196 137.109 12.2296 137.222 12.1706 137.362C12.1173 137.496 12.0679 137.664 12.0615 137.806C12.0583 137.906 12.0583 138.009 12.0583 138.108C12.0615 138.214 12.0711 138.354 12.1021 138.454C12.1236 138.519 12.1762 138.591 12.2104 138.647C12.2606 138.73 12.3044 138.771 12.3753 138.839C12.4717 138.929 12.5282 139.045 12.6151 139.144C12.6557 139.191 12.7051 139.219 12.752 139.257C12.8452 139.334 12.9018 139.437 12.9822 139.521C13.0818 139.623 13.2188 139.67 13.3279 139.76C13.4307 139.848 13.5175 139.923 13.6353 139.988C13.7166 140.034 13.7819 140.09 13.8655 140.134C13.9372 140.171 14.0121 140.196 14.0774 140.236C14.1395 140.271 14.2016 140.295 14.2701 140.321C14.3665 140.357 14.4414 140.408 14.5409 140.432C14.6564 140.463 14.7592 140.491 14.8643 140.545C14.9861 140.6 15.1232 140.619 15.241 140.675C15.2936 140.703 15.3342 140.75 15.3876 140.778C15.4529 140.812 15.5182 140.818 15.5891 140.837C15.7357 140.884 15.879 140.961 16.0192 141.023C16.1403 141.073 16.2613 141.108 16.38 141.16C16.5011 141.214 16.6134 141.269 16.7472 141.304C16.865 141.338 16.971 141.403 17.0889 141.434C17.2044 141.468 17.3254 141.49 17.4377 141.527C17.5437 141.559 17.6089 141.59 17.7141 141.606C17.7985 141.614 17.8702 141.658 17.9506 141.683C18.1067 141.727 18.2716 141.764 18.4237 141.808C18.5297 141.839 18.6229 141.836 18.6293 141.963C18.6325 142.075 18.5887 142.175 18.5608 142.283C18.5233 142.43 18.4986 142.567 18.4269 142.704C18.3401 142.881 18.231 143.049 18.1219 143.214C17.9228 143.519 17.7579 143.799 17.4281 143.979C17.276 144.067 17.1143 144.16 16.9463 144.197C16.7527 144.237 16.5258 144.206 16.3362 144.169C15.6146 144.036 14.8802 143.768 14.2327 143.425C13.9715 143.288 13.7102 143.145 13.4585 142.996C13.0914 142.776 12.7799 142.529 12.4781 142.231C12.1985 141.96 11.9277 141.68 11.6473 141.41C11.2897 141.07 10.9879 140.713 10.7481 140.274C10.4001 139.645 10.1077 138.936 10.0607 138.211C10.005 137.312 10.2447 136.428 10.6613 135.638C10.8915 135.196 11.1687 134.792 11.492 134.415C11.9994 133.818 12.5712 133.249 13.2028 132.782C14.208 132.045 15.3127 131.45 16.4541 130.949C17.2944 130.579 18.1808 130.287 19.0554 130.003C19.8734 129.736 20.6985 129.484 21.538 129.291C22.0669 129.17 22.6053 129.079 23.1373 128.977C24.0891 128.79 25.029 128.544 25.9967 128.457C26.3232 128.426 26.6466 128.405 26.9731 128.488C27.1818 128.544 27.3969 128.638 27.5864 128.738C27.7107 128.803 27.8572 128.865 27.7609 128.993C27.6677 129.117 27.549 129.226 27.4494 129.35C27.3626 129.459 27.3005 129.593 27.2065 129.696C27.1133 129.795 27.0018 129.885 26.9023 129.982C26.8489 130.032 26.6434 130.231 26.5287 130.147Z" fill="white"/>
<path d="M16.8395 140.563C17.1071 140.187 17.3246 140.01 17.6082 139.646C18.0558 139.064 18.6005 138.868 19.26 138.526C19.534 138.383 19.8072 138.28 20.078 138.128C20.3392 137.978 20.5949 137.953 20.8808 137.888C21.033 137.857 21.1891 137.782 21.3444 137.788C21.444 137.792 21.5467 137.835 21.6431 137.854C22.1568 137.956 22.6976 137.785 23.1429 138.105C23.4168 138.304 23.7123 138.432 24.0015 138.603C24.1353 138.684 24.2133 138.825 24.3097 138.939C24.3902 139.032 24.5088 139.12 24.571 139.225C24.6052 139.282 24.6148 139.396 24.6331 139.453C24.6825 139.577 24.7605 139.686 24.8107 139.811C24.876 139.988 24.9102 140.168 24.9253 140.355C24.9413 140.566 24.919 140.065 24.9318 140.274C24.9445 140.539 24.8792 140.8 24.8815 141.061C24.8879 141.357 24.8728 141.552 24.7796 141.839C24.7199 142.013 24.6331 142.312 24.7796 142.449C24.8537 142.523 24.9533 142.527 25.0528 142.545C25.3794 142.617 25.7003 142.648 26.0054 142.797C26.3877 142.984 26.8075 143.003 27.2033 143.155C27.5673 143.295 27.8906 143.507 28.2729 143.609C28.6369 143.706 28.9516 143.837 29.2964 143.986C29.4804 144.067 29.6636 144.157 29.8508 144.232C30.081 144.322 30.3327 144.362 30.5509 144.487C30.6656 144.549 30.7126 144.536 30.8241 144.601C30.8241 144.601 30.8926 144.636 31.098 144.699C31.098 144.699 31.0949 144.686 31.3816 144.91C31.4246 144.944 31.5553 145.04 31.7082 145.267C31.7767 145.37 31.8109 145.47 31.8882 145.597C31.9535 145.703 32.0037 145.731 32.0284 145.843C32.0753 146.058 32.1375 146.251 32.1183 146.481C32.1 146.687 32.0817 146.901 32.0498 147.103L32.0164 147.24C31.9567 147.426 31.9535 147.542 31.8324 147.7C31.7456 147.819 31.7233 147.924 31.6054 148.006C31.4437 148.111 31.2287 148.404 31.0455 148.448C30.8551 148.494 30.7898 148.494 30.6035 148.487L30.5166 148.479C30.3175 148.466 30.476 148.482 30.2801 148.456C30.0308 148.425 30.0714 148.425 30.0586 148.422C29.9878 148.401 29.9344 148.401 29.8595 148.385C29.76 148.363 29.6947 148.366 29.6015 148.338C29.5641 148.329 29.5242 148.518 29.5242 148.518C29.49 148.578 29.4956 148.709 29.4868 148.774C29.4303 149.191 29.3155 149.608 29.1602 150C28.7429 151.067 27.8349 152.76 26.9787 153.525C26.6242 153.839 26.2786 154.113 25.8684 154.346C25.3921 154.614 24.8537 154.729 24.328 154.823C24.0014 154.881 23.6781 154.981 23.342 154.981C23.0401 154.984 22.7167 155.024 22.4149 154.99C22.1568 154.962 21.929 154.834 21.6709 154.803C21.3755 154.766 21.0927 154.756 20.8028 154.666C20.5949 154.601 20.3958 154.518 20.1744 154.486C20.0286 154.464 19.8789 154.464 19.7331 154.436C19.3843 154.374 19.0705 154.165 18.7344 154.054C18.4229 153.948 18.1768 153.801 17.91 153.612C17.5516 153.354 17.1287 153.195 16.7742 152.936C16.6277 152.834 16.5592 152.703 16.4532 152.564C16.329 152.399 16.192 152.259 16.0335 152.125C15.9586 152.063 15.8248 151.982 15.7563 151.901C15.66 151.792 15.6225 151.642 15.5421 151.524C15.4083 151.335 15.1877 151.21 15.0881 150.999C15.01 150.831 14.963 150.643 14.8858 150.473C14.8205 150.33 14.7241 150.209 14.6556 150.068C14.5903 149.925 14.5927 149.798 14.5871 149.645C14.5775 149.349 14.5274 149.101 14.4684 148.815C14.3816 148.388 14.5058 147.99 14.4652 147.57C14.4405 147.284 14.3936 147.013 14.4127 146.721C14.431 146.462 14.3752 146.186 14.4437 145.936C14.509 145.688 14.5528 145.423 14.6245 145.177C14.6986 144.932 14.8109 144.689 14.8826 144.44C15.0005 144.023 15.159 143.569 15.3645 143.186C15.4831 142.965 15.5915 142.742 15.7101 142.52C15.7563 142.43 15.8376 142.352 15.8846 142.265C15.9188 142.19 15.9244 142.119 15.9682 142.047C16.0646 141.885 16.1426 141.712 16.2573 141.559C16.329 141.459 16.4413 141.348 16.4907 141.235C16.556 141.095 16.5815 141.015 16.6778 140.881C16.7368 140.8 16.7957 140.719 16.8579 140.635C16.9112 140.56 17.0076 140.467 17.0419 140.383C17.0912 140.271 17.0761 140.168 16.8395 140.563Z" fill="white"/>
<path d="M22.5169 141.748C22.5663 141.748 22.6038 141.751 22.6539 141.761C22.7256 141.774 22.7909 141.795 22.8594 141.82C22.9271 141.848 22.9988 141.861 23.0673 141.88C23.1454 141.901 23.217 141.942 23.2911 141.97C23.3413 141.988 23.3907 141.998 23.4377 142.019C23.5436 142.066 23.6527 142.11 23.7611 142.147C23.9355 142.203 24.1035 142.278 24.278 142.343C24.3807 142.383 24.4859 142.411 24.5886 142.452C24.6826 142.486 24.7789 142.52 24.8753 142.542C24.9128 142.551 24.9494 142.567 24.9836 142.577C25.0306 142.592 25.0776 142.595 25.1175 142.61C25.2051 142.639 25.2983 142.651 25.3851 142.67C25.4759 142.688 25.5563 142.713 25.6439 142.735C25.675 142.742 25.7061 142.747 25.7371 142.75C25.7993 142.763 25.855 142.788 25.9139 142.797C26.1131 142.838 26.2971 142.931 26.4962 142.972C26.5766 142.987 26.6546 143.024 26.7359 143.046C26.8076 143.071 26.8784 143.093 26.9565 143.109C27.1214 143.142 27.2926 143.168 27.4511 143.223C27.526 143.251 27.6008 143.274 27.6781 143.295C27.706 143.305 27.7371 143.313 27.7689 143.32C27.7809 143.326 27.8032 143.323 27.8151 143.336C27.7968 143.323 27.7689 143.313 27.7498 143.305C27.6781 143.27 27.6065 143.236 27.5292 143.211C27.4886 143.199 27.448 143.18 27.405 143.164C27.358 143.145 27.3109 143.137 27.2647 143.121C27.162 143.093 27.0593 143.046 26.9693 142.996C26.9191 142.969 26.8697 142.953 26.8195 142.928C26.7789 142.906 26.7391 142.884 26.6985 142.866C26.6427 142.838 26.5893 142.812 26.5304 142.794C26.4715 142.778 26.4149 142.766 26.3591 142.742C26.1226 142.639 25.8773 142.551 25.6439 142.443C25.4225 142.337 25.1892 142.246 24.9717 142.128C24.9032 142.091 24.8315 142.053 24.7598 142.029C24.7041 142.007 24.6419 141.991 24.5854 141.967C24.489 141.923 24.3839 141.885 24.2812 141.864C24.1314 141.839 23.9824 141.826 23.8327 141.799C23.7491 141.78 23.6647 141.792 23.581 141.78C23.4847 141.771 23.3883 141.764 23.2887 141.764C23.1732 141.764 23.0673 141.755 22.9526 141.74C22.8531 141.727 22.7591 141.724 22.6603 141.724C22.6229 141.724 22.5823 141.724 22.5449 141.724C22.5202 141.724 22.5042 141.717 22.4827 141.712C22.4668 141.712 22.4142 141.705 22.5169 141.748Z" fill="#FBC748"/>
<!-- Arm -->
<path d="M138.203 63.7033C138.321 63.5448 138.436 63.38 138.546 63.2119C138.554 63.1498 138.561 63.0876 138.567 63.0255C138.825 62.4807 139.183 62.0108 139.501 61.5067C139.976 60.7572 140.272 59.8922 140.692 59.1085C141.149 58.2523 141.575 57.3849 142.002 56.5136C143.209 54.0493 144.578 51.6662 145.782 49.2019C146.357 48.0287 146.877 46.8627 147.552 45.742C148.019 44.9678 148.417 44.1777 148.815 43.3653C149.711 41.5358 150.66 39.7318 151.562 37.8992C151.926 37.1584 152.244 36.4026 152.599 35.6587C152.944 34.9466 153.367 34.2712 153.722 33.5616C154.098 32.8089 154.422 32.0403 154.842 31.3059C155.331 30.4569 155.781 29.623 156.155 28.7142C156.69 27.4176 157.405 26.2316 158.009 24.9716C158.215 24.5455 158.442 24.1472 158.696 23.7522C158.861 23.5005 158.936 23.2448 159.086 22.99C159.282 22.6443 159.527 22.3488 159.695 21.988C159.723 21.9291 159.785 21.7769 159.832 21.7331C160.053 21.5181 160.218 21.6614 160.454 21.7642C160.588 21.8199 160.694 21.8263 160.841 21.8765C160.968 21.9163 161.033 22.0413 161.142 22.078C161.264 22.1218 161.342 22.1218 161.453 22.1752C161.624 22.2588 161.699 22.309 161.892 22.3241C162.246 22.3552 162.458 22.5479 162.782 22.5607C163.071 22.5734 163.252 22.6355 163.526 22.704C163.659 22.7383 163.721 22.7972 163.901 22.7941C164.089 22.7941 164.3 22.7598 164.481 22.8123C164.555 23.1333 164.468 23.3197 164.306 23.5746C164.132 23.839 164.113 24.1409 163.995 24.4244C163.839 24.798 163.622 25.1301 163.485 25.5196C163.364 25.8708 163.326 26.2412 163.202 26.5924C163.04 27.0536 162.844 27.5075 162.751 27.9894C162.53 29.1467 161.954 30.2052 161.655 31.3434C161.459 32.0905 161.223 32.7938 160.983 33.5305C160.79 34.1342 160.516 34.6973 160.309 35.2947C160.072 35.9701 159.823 36.6264 159.558 37.2891C159.316 37.9023 159.204 38.5554 158.955 39.1687C158.541 40.189 158.168 41.2221 157.804 42.2607C157.399 43.4243 157.11 44.6318 156.622 45.7612C156.204 46.7225 155.949 47.7523 155.579 48.732C155.377 49.2672 155.147 49.7929 154.941 50.3217C154.642 51.084 154.428 51.8685 154.123 52.6276C153.875 53.2464 153.535 53.8095 153.32 54.4443C153.065 55.1882 152.751 55.8788 152.468 56.6131C151.887 58.1161 151.422 59.6556 150.813 61.149C149.702 63.8873 148.52 66.5937 147.353 69.3097C147.108 69.8824 146.868 70.4518 146.604 71.015C146.526 71.183 146.302 71.684 146.134 71.7613C145.788 71.9174 145.032 71.0397 144.855 70.8875C143.862 70.0377 143.234 68.8868 142.331 67.9437C141.305 66.8677 140.353 65.7415 139.348 64.6464C139.068 64.3381 138.788 64.033 138.548 63.6938C138.362 63.4269 138.287 63.4891 138.203 63.7033Z" fill="white"/>
<path d="M157.873 24.9312C157.743 25.112 157.525 24.9655 157.376 24.8914C156.399 24.4023 155.494 23.703 154.644 23.018C153.614 22.1905 152.575 21.3447 151.58 20.4733C150.575 19.5924 149.784 18.5594 149.025 17.4674C148.692 16.9855 148.462 16.4846 148.238 15.943C148.079 15.5702 147.874 15.2031 147.743 14.82C147.573 14.307 147.405 13.6595 147.669 13.1712C147.805 12.9132 147.976 12.6265 148.26 12.5181C148.508 12.4241 148.776 12.288 149.04 12.3159C149.358 12.3501 149.682 12.4464 149.987 12.5333C150.428 12.6575 150.786 12.9721 151.237 13.0844C151.732 13.2087 152.143 13.3608 152.594 13.6189C152.982 13.8435 153.297 14.1883 153.646 14.4655C153.991 14.7363 154.283 15.0382 154.609 15.3241C154.818 15.5073 155.058 15.6443 155.263 15.8283C155.543 16.08 155.752 16.3914 155.975 16.6901C156.324 17.1568 156.738 17.5304 157.052 18.0282C157.332 18.4662 157.805 18.7402 158.054 19.2006C158.231 19.5367 158.492 19.8075 158.624 20.1651C158.717 20.4231 158.897 20.5944 159.019 20.8373C159.115 21.0332 159.236 21.1798 159.301 21.4004C159.367 21.6147 159.448 21.8735 159.553 22.0663C159.488 21.8704 159.525 21.7485 159.497 21.5557C159.47 21.3662 159.36 21.1766 159.314 20.9894C159.249 20.7067 159.215 20.4176 159.137 20.134C158.962 19.5239 158.813 18.9361 158.707 18.3045C158.502 17.0381 158.359 15.716 158.026 14.4783C157.684 13.215 157.482 11.9574 157.304 10.6632C157.235 10.1598 157.227 9.64606 157.158 9.13871C157.071 8.49834 157.083 7.94083 157.149 7.30046C157.264 6.18301 157.351 5.07907 157.568 3.97755C157.678 3.41444 157.818 2.93496 158.014 2.39734C158.151 2.01742 158.244 1.52918 158.484 1.19944C158.601 1.03457 158.779 0.966087 158.969 0.915909C159.274 0.844226 159.411 0.903968 159.675 1.03698C159.853 1.13096 160.076 1.20503 160.198 1.35158C160.437 1.6407 160.633 2.03256 160.836 2.35672C161.159 2.86965 161.271 3.43276 161.395 4.01498C161.539 4.69597 161.75 5.38096 161.841 6.06832C161.9 6.48487 161.943 6.90218 161.999 7.31874C162.052 7.72972 162.176 8.12481 162.229 8.5326C162.288 8.98022 162.245 9.4374 162.279 9.889C162.323 10.4704 162.332 11.0526 162.329 11.6372C162.316 12.8877 162.276 14.1477 162.31 15.399C162.323 15.8593 162.329 16.3261 162.313 16.7897C162.307 16.9386 162.282 17.0915 162.276 17.2436C162.264 17.465 162.304 17.6976 162.264 17.9159C162.202 18.2799 162.223 18.6406 162.161 19.0046C162.127 19.2284 162.064 19.4435 162.049 19.6673C162.03 19.9413 162.136 20.3515 161.983 20.5824C162.189 20.181 162.186 19.6235 162.273 19.191C162.391 18.5912 162.413 17.978 162.507 17.3711C162.652 16.4129 163.019 15.5543 163.305 14.6336C163.61 13.6563 163.775 12.6488 164.025 11.6564C164.227 10.8472 164.448 10.0443 164.575 9.21994C164.746 8.09373 165.244 6.93326 165.863 5.97192C166.398 5.1412 166.884 4.27941 167.602 3.59205C167.973 3.24001 168.34 2.93498 168.878 2.89754C168.934 2.91666 168.993 2.93496 169.049 2.95089C169.161 2.94134 169.273 2.93177 169.385 2.9262C169.575 2.9262 169.84 2.94452 170.01 3.02576C170.25 3.14364 170.539 3.3802 170.754 3.54188C170.966 3.69401 171.121 3.90588 171.245 4.12968C171.513 4.61553 171.42 5.19693 171.433 5.73216C171.438 6.06827 171.348 6.31121 171.273 6.64414C171.177 7.07662 171.1 7.49635 170.972 7.92246C170.452 9.65878 169.675 11.2486 168.853 12.8598C168.399 13.7527 167.97 14.6551 167.431 15.4985C167.152 15.9374 166.855 16.3882 166.613 16.8454C166.411 17.2253 166.162 17.5614 165.951 17.931C165.409 18.8899 164.942 19.9102 164.448 20.8962C164.697 20.3642 165.151 19.9102 165.487 19.4275C166.261 18.3109 167.12 17.2715 167.982 16.2202C168.436 15.6666 168.999 15.1688 169.525 14.6861C169.883 14.3564 170.297 14.0673 170.704 13.7997C170.966 13.6284 171.261 13.5257 171.526 13.3736C171.759 13.2366 171.986 13.09 172.235 12.9841C172.378 12.9251 172.49 12.9036 172.636 12.8662C172.866 12.8041 173.06 12.6607 173.292 12.6082C173.641 12.5269 173.981 12.6049 174.32 12.4584C174.466 12.3994 174.587 12.3031 174.749 12.2688C174.87 12.2473 175.019 12.2752 175.147 12.2561C175.595 12.1972 175.987 12.0944 176.442 12.2163C176.56 12.2442 176.662 12.3214 176.78 12.3533C176.998 12.409 177.266 12.3405 177.474 12.4154C177.695 12.4959 177.847 12.9036 177.973 13.0868C178.066 13.2238 178.159 13.3489 178.2 13.5106C178.29 13.8746 178.109 14.3126 177.938 14.6399C177.707 15.078 177.493 15.5073 177.209 15.9183C176.982 16.2448 176.677 16.5005 176.416 16.8016C176.012 17.2683 175.583 17.5614 175.122 17.9533C174.637 18.3635 174.155 18.7808 173.657 19.1759C173.265 19.4809 172.835 19.7175 172.453 20.0345C172.229 20.2208 172.008 20.2925 171.759 20.42C171.402 20.6008 171.069 20.9616 170.726 21.1798C170.141 21.5525 169.653 22.0105 169.109 22.4335C168.614 22.819 168.017 23.1646 167.475 23.4696C167.157 23.6465 166.824 23.7309 166.504 23.8798C165.845 24.1881 165.203 24.5274 164.55 24.8348C164.049 25.0714 163.449 25.2331 162.914 25.3669C162.637 25.4322 162.36 25.523 162.089 25.6162C161.912 25.6751 161.806 25.66 161.619 25.6783C161.137 25.7253 160.633 25.7683 160.145 25.6942C159.884 25.6536 159.575 25.6599 159.326 25.5755C159.124 25.5038 158.993 25.4139 158.769 25.3892C158.518 25.3613 158.356 25.2705 158.11 25.2083C157.936 25.1677 157.693 25.1056 157.55 24.9846C157.431 24.8818 157.407 24.7982 157.248 24.7201C156.909 24.5552 156.75 24.3808 156.539 24.0415" fill="white"/>
</svg>
